<?xml version="1.0" encoding="utf-8"?>
<!-- Generator: Adobe Illustrator 25.2.1, SVG Export Plug-In . SVG Version: 6.00 Build 0)  -->
<svg version="1.1" id="Layer_2" xmlns="http://www.w3.org/2000/svg" xmlns:xlink="http://www.w3.org/1999/xlink" x="0px" y="0px"
	 viewBox="0 0 581.3 92.5" style="enable-background:new 0 0 581.3 92.5;" xml:space="preserve">
<style type="text/css">
	.st0{fill:#FFFFFF;}
	.st1{fill:#C1272D;}
	.st2{fill:url(#SVGID_1_);}
	.st3{fill:url(#SVGID_2_);}
	.st4{fill:url(#SVGID_3_);}
	.st5{fill:url(#SVGID_4_);}
	.st6{fill:url(#SVGID_5_);}
	.st7{fill:url(#SVGID_6_);}
	.st8{fill:url(#SVGID_7_);}
	.st9{fill:url(#SVGID_8_);}
	.st10{fill:url(#SVGID_9_);}
</style>
<path class="st0" d="M28.9,3.6C27.1,3.3,19.5,29,13.2,51.1c-0.1,0.2-5.3-0.2-4,0.7c3.5,2.2,3.7,0.1,3.1,1.7c0,0-3.2-0.1-3.3,0.4
	c-0.3,1,1.9,1,1.6,1.4c-0.5,0.5-3.2-0.7-4.2,0.6c-1,1.2,5.4,0.6,3.9,0.6c-4.4,0.2-0.4,1.4-3.5,2.2c-0.4,0.1,4.2-0.1,4,0.3
	C7.6,70.3,5,79.6,4.1,81.7c-0.7,1.7,0.4,1.8,0.4,1.8s1.9-4,1.2-1.3c-0.9,3.5-0.6,3.4,0,3.3c2.8-0.4,2.9-3.8,3.3-4.1
	c1.3-0.7-0.8,2.7,0.3,2.4c1-0.3,1.5-2.7,2.2-4.5c0.2-0.6,0.5-1.5,1.1-2.4c1.7-2.3,4.1-18.3,5-18c0.8,0.3-6.3,25.1-6.3,25.1
	c2.8,4.5,4.4-4.5,4.1-2.7c-0.8,4.4,1.7,3,1.7,3l6.3-25.6l11.6,0l-1.9-7.9l-7.8,0.2l4-16.2l3.8,16l0.4,1.8l1.1,4.5l0.3,1.3l5.9,25.3
	c0,0,3.6,2.6,2.9,0.1c-2.9-10.4-6.3-25-1.2-6.4c0.4,1.3,1.5,2.1,1.8,3.3c0.6,2.4,2.1,2.6,1.8,2c-1.1-2.4-1.3-7.2-1.3-7.2
	s4.3,11.2,3.1,5.6c-0.7-3.2-0.5-4.9-1.4-6.9c-1.7-4.2-2.1-8.3-2.5-10.6c-0.8-4.4,0.8-0.8,1.4,4.1c0.3,2.6,3.9,15.7,4.2,16.5
	c0.4,1.1,1.4,1.8,1.4,1.8s0.9-0.4,1.4,0.2c1,1.2,1.8,2.7,3.1,2.7c0.3,0-3.6-13.7-8.4-30.5c-0.1-0.4,4.4,0.1,4.2-0.3
	c-0.6-1.5-0.1-2.2-1.9-2c-1.1,0.1-0.6,0.1-0.9-0.5c-0.1-0.3,0.6,0,0.4-0.9c-0.2-0.7-1.1,0-1.4-0.5c-0.2-0.3,1.2,0.2,1.1-0.7
	c0-0.2-1.4,0,0-0.9c0.5-0.4-1,0.3-1.2,0c-0.1-0.3,1.6-0.4,1.5-0.5c-1.1-0.4-3.5,0.4-3.1,0.1c0.6-0.5,2.8-0.2,2.5-1
	c-0.3-0.9-3.3-0.4-3.4-0.6C38.3,28.2,30.7,3.8,28.9,3.6z"/>
<path class="st0" d="M58,39.5c-0.2,0.9,0,44.6,0,44.6s1.8,0.4,2.2,0c0.5-0.4,0.5-2.5,0.5-2.5c-1.1-3.6,0.3-11.5-0.1,0.4
	c0,0.7,0.2,3.2,1.7,2.5c1.2-0.6,0-2.2,0.9-0.9c0.8,1.1,1.8,0.3,1.5-0.8c0-0.2-0.1,1.3,0,0c0.2-2-0.7-5-0.5-9.6
	c0.2-7.5,0-16.3,0-16.3s0.9,7.5,0.7,13.6c-0.3,7.1,0.4,12.2,0.4,12.9c-0.1,1.8,0.6,2,2.7,0.2c0.7-0.6,1.3,0.6,1.3,0.6l0.1-22.6
	c0,0,12,17.7,16.7,24.1c0.5,0.7,2,1.3,3,1.1c0.7-0.1-1.6-2.6-2.6-4c-1.8-2.6-3.3-6-3.1-5.4c0.2,0.9,8.4,11.5,8.4,10.8
	c-0.1-1,0.7-1.6-0.2-2.7c-1.6-1.8-2.8-3.5-1.8-2.3c2.6,2.9-0.4-1.5,0.1-1.5c1.1,0-0.2-1-1.5-2.4c-1.2-1.2-3.2-3.7-2.7-3.8
	c0.6-0.1,5.2,7.3,5.9,5.1c0.2-0.8-2.8-4.7-4-6.8c-0.6-1.1,1.3,2,1.9,1.3c0.1-0.1,0.6-0.1,0-1.1c-2.6-4.4-10.9-15.7-10.9-15.7
	s11.2,0.3,10.8-15.3C89,38.1,83,31.6,78.5,30.5c-10.4-2.7-27.1,1.4-26.3,1.5c0.1,0-0.7,1-0.2,1.7c0.3,0.4,2-1,2.3-0.5
	c0.2,0.4-4.4,0.6-0.6,2.1c0.1,0,2-0.8,3.3-1.1c3.1-0.8,10.4-1.5,0.6,0.6c-0.7,0.2-2.5,0.6-3.5,1.3c-0.3,0.2-0.6,0.7,0.1,1.2
	c0.1,0.1,1.6-0.9,2.7-1.2c2.1-0.6,10.7-1.8,1.5,0.3c-0.5,0.1-4.4,0.9-3.5,1.9c0.2,0.3,1-0.2,1.5,0.2c0.6,0.4,3.6-0.8,3.7-0.5
	c0.1,0.3-3.3,1-4.1,1.3C55,39.5,56,39.7,56,39.7c3.5,0.8,10.9-1.5,14.9-1.2c2.5,0.2,8.5,1.8,8.6,5.8c0.4,11.9-10.1,8.2-10.4,8.8
	c-0.2,0.5,0.1-15.8-0.3-15.1S58,39.5,58,39.5z"/>
<path class="st0" d="M87.2,30.8c0,0-1.9,0.8,3.6,0.3c0.3,0-0.2,0.3-0.2,0.3l-5.4,0.2l0.7,1.6l11.2-0.1c0,0,0.5,0.6-8.3,0.3
	c-1.6,0-0.3,0.4-0.3,0.4s-1.4,1.3-0.4,1.3c1,0,1.3,0,1.3,0s1.3-0.1,1.3,0.4c0,0.7-2-0.6-0.8,1.1l4.6,0c0,0-2.5,1.1-5,0.5
	c-0.4-0.1-0.2,1.5,0.1,1.4c0.3-0.1,9.5-0.3,9.5-0.3l0.1,40.6c0,0,0,0.6,1-0.2c0.9-0.7,0.5-0.4,0.7-3.4c0.1-2.7-0.6-6.4,0.3-4.8
	l0.1-11.1l0.2,15.8c0,0,0.4,5.8,0.3,7.8c0,0.5,1.6,1.6,1.9,1.3c0.3-0.4,0.3-11.8,0.3-11.8l0.5,6.4V85c0,0,0.2,1.8,0.7,1.9
	c1,0.2,1.3-0.9,1.3-0.9l-0.2-9.4c0,0-0.3-8-0.2-11c0-4.4-0.3-17.3-0.3-17.3l1.1,21.2l0.2,12.3c0,0,0.4,0.6,0.8,1.7
	c0.2,0.6,1.8,1.2,1.8,1.2l1.2-1.1l-0.4-45.2l12.9,0.1c0,0,0.2-7.9,0-7.7C123,30.9,87.2,30.8,87.2,30.8z"/>
<path class="st1" d="M126.5,6.2c-4.2-1-2.5,16.6-2.5,16.6v60.6c-0.4,0.2-0.3,2.2,2.2,1.3c2.4-0.8,1.7-2.7,1.7-2.7l-0.1-6l0.6,3.4
	l1,2.3c0,0-0.4,1.4,1.4,0.6c0.2-0.1,1-0.8,1.1-1.3c0.3-0.8-0.6-2.8-0.6-2.8l0.8-1l-0.7-4.1l0.6-1.6l0.5,3.5l1.1,5.6
	c0,0,4.8,1.5,4.4,0c-1-4.7-1.6-35.4-1.6-35.4s18.3,28,22.7,35.6c2.1,3.7,2.7,4.8,2.7,4.8s5.9,3.8,5.3,3c-1.8-2.8-2-4.4-2-4.4
	c0,0,1.1,0.7,2.8-0.1l-1.5-3l-4-6.8l-0.5-2.4c0,0-4-5.6-2.4-4.1c1.9,1.8,3.3,5.7,4.7,6.6c0.6,0.4-0.2-1.6-0.5-3c-0.5-2-1.2-3-1.2-3
	l-0.3-0.8c0,0,2.3,1.9,1.6,0.3c-0.4-1-1.7-3.1-1.7-3.1l-1.6-2.9l-1.3-1.9l2.5,2.3c0,0,0.5-0.5-0.1-1.4c-0.8-1.4-16.7-24.6-16.7-24.6
	l25-32.1l1.1-2.4l-0.7-2c0,0-2.7,3.9-5,6.3c-0.7,0.8-1.6,0.8-2,1.2c-0.6,0.6,0.3-3.3,0.3-3.3L159,9.9l-2.5,1.5c0,0,1.2-1.5,1.4-3.5
	c0.3-2.4-6.3,4.1-6.3,4.1s1.5-3.2,0.9-3.1c-1.1,0.1-3.6,4.1-3.6,4.1l-7,10.5l-5.2,6.7c0,0,0.4-15.8-0.6-22.9
	c-0.1-0.7-2.4-1.2-3.1-1.3C131.3,5.7,126.5,6.2,126.5,6.2z"/>
<path class="st1" d="M167.2,33.4c-0.2,0.8,0.3,47.3,0.3,47.3l1,1.7l1.7,2.2l1.2-3.7c0,0,0,3.4,0.8,3.7c0.5,0.2,1.8-1.7,1.8-1.7
	l-0.5-6.8c0,0,0.8,2.5,0.8,0.2c0-0.8,0.3-9.3,0.3-9.3l0.3,7.5l0.3,9.3l1.3,0.5v-8.3c0,0,0.6,0.4,0.6,0.6c-0.1,4,0.5,7.5,0.5,7.5
	l1.7-0.2l0.7-51.5l-2-1.4l-3.9-0.3c0,0-4,0.4-4.7,0.7C168.8,31.6,167.2,33.4,167.2,33.4z"/>
<path class="st1" d="M271.8,34.1c-0.5,0.5-0.1,9.3-0.4,16c-0.3,7-0.9,22.5-1,25.1c0,0.2-0.3,8,0,8c0.3,0,1,1.1,1,1.1l0.9-0.4
	c0,0,0.1,0.9,0.4,0.9c0.7,0,0.8-1.2,0.8-1.2s0.9,1.3,1.6,0.6c0.7-0.7,1.3-0.5,1.3-0.5l-0.5-6.4l0.7-6.2l0.6,11.9
	c0,0-0.8,1.2,1.7,1.2c0.7,0,0.6-2.7,0.6-2.7l0.4,2.7l0.7-0.1c0,0,0.5-28.7,0.4-28.3c-0.1,0.4,4.1,11.7,4.1,11.7l4.4,15.4l1.3-0.6
	c0,0,0.3-1.9,0.3-2.1c0-0.2,1,3.2,1,3.2l1.2-1.2l-0.5,2.2l1.1-0.7V85l2.2-0.5c0,0,2.9-0.9,6.6-0.2c1.1,0.2,0.6-2.5,0.6-2.5l1.3-45.9
	c0,0,0.5-1.9-0.4-1.8l-0.7-3.2l-1.1,3.1c0,0,0.5-1.9,0-2.8c-0.5-0.8-1.6,0.2-1.5,0.5c0.3,1.1,0,1.6,0,1.6l-1-2.3
	c0,0-0.9,1.6-0.9,3.6c0,1.2-0.9-4.1-0.9-4.1l-1.4,1.5l-1.4,3.2c0,0-0.2-1.9-0.8-2.2c-0.3-0.1-1.3,0.2-1.3,0.6
	c-0.2,1,0.3,5.3,0.3,5.3v12.8l-0.1,12.4l-6-21.6c0,0-0.9-8.3-2.4-10.2c-1.1-1.4-2.4-0.1-2.4-0.1l-1.1-0.1c0,0-1.4-0.7-1.6-0.8
	c-1.7-0.2-4.9,0.7-4.9,0.7l-0.8,0.9C274.3,32.8,272.8,33,271.8,34.1z"/>
<path class="st1" d="M348.5,59c0,3.8,0.4,7.4,0.4,10.5c0,3.5,0.2,1.5,0.1,2.1c-0.1,1,0.1,2.5,0,3.4c0,0.6-1.1,1.4-1.6,2.5
	c-0.2,0.4-0.8-1.1-0.9-2.7c-0.2-9.8-0.8-0.1-0.8-0.1c0.5,2,0.1,4.2,0,4.9c-0.2,1.9-1.2,0.4-1.2-0.5c-0.1-2.5-0.6-3.8-0.5,2.3
	c0,0.7-0.6,1.4-2,1.7c-0.4,0.1,0.2-4.9-0.4-3.2c-0.4,1.1,0.3,4.1-0.5,4.9c-2,2.3-2-1.4-2.2-1.3c-1.8,0.8-4,1.2-6.5,1.2
	c-12.5,0-22.7-12.3-22.7-27.5S320,31,332.5,29.9c2.9-0.3,16.8,1.7,15.6,7.4c-0.3,1.3-0.4,4.1-1.2,4.6c-8.8,6.3-17-10.6-24.3,9.6
	c-0.3,0.9-3.3,13.3,2.6,19c1.3,1.3,5.9,8,13.2,1.4c2-1.8,1.3-12.7,1.3-12.7c-0.8-0.5-9.5,0.4-9.8-0.4c-0.4-1.2-1.9-1.5,2.1-1.2
	c1,0.1-0.3-1.1,0.9-1.2c0.4-0.1-5.6,1-3.4-0.2c1.3-0.8-0.3-1.6,1.6-1.3c1.6,0.2-0.2-1.1,0.8-1.1c0.3,0-2.9,0.4-3-0.2
	c-0.5-2.2,0.1-2.1,1.2-2.2c1.6-0.1,9.6-0.1,10.5-0.1c3.9,0.2,13.8,0.3,14.6,0.1c0,0,4.6,1.9-4.9,1.2c-0.3,0-0.3,0.6,0,0.8
	c0.3,0.4,8.6-0.3,8.4,0.2c-0.9,2.3-1.9,3.9-2.3,4.7C355.9,59.2,348.5,58.6,348.5,59z"/>
<path class="st0" d="M403,38.4c-0.6,0.2,0.4,39.3,0.4,39.3s-0.3,4.1,0,4.6c0.5,0.7,0.8-2.3,0.8-2.3s0.2,4.1,0.5,4.5
	c1.2,1.5,1.5,0.1,1.5,0.1s1.1-0.8,0.7-3.4c-0.5-2.8,0-24.5,0-24.5s0.7,7.6,0.7,8.3c0,0.7-0.2,11.5-0.2,11.5s0.1,4.9,1,6.3
	c1.5,2.3,2-0.9,2-0.9l0.6-1.4c0,0,0.5,1.7-0.2,4c-0.1,0.4,2.1-1,2.1-1l0.1-5.3l0.4,1.9l0.2,3.1l1.4,0.5L415,58.2l1.5,0l1.7-0.2
	c0,0,0.7-0.4,1.5-0.7c0.5-0.2,2.5-1.2,2.5-1.2s-3.1,2.6-5.1,3.4c-0.7,0.3,2.5,0.7,4.5,0.1c3.1-0.9,4.1-3.5,4.1-2.6s-2.4,1.8-1.8,2.2
	c0.7,0.4,3.4-2,4.7-3c3.6-2.7,14.9-22.7-15.1-26.3c-4-0.5-15.6,0.9-17.1,4.1c-0.3,0.6,0.5,0.8,0.5,0.8l2.1,0.3c0,0,2.1-0.9,2.7-1.3
	c5.2-2.8,14.2-1.5,14.2-1.5s-8.1-0.1-12.2,1.4c-1.9,0.7-4.2,1.6-4.7,2c-1.1,0.7-1.2,1.8-0.5,2.1c0.4,0.2,2.9-1.4,5-2.3
	c3.9-1.7,6.3-0.7,6.3-0.7s-6.3,0.7-9.5,3.3c-1.5,1.3-1.1,2-0.8,1.7c1.9-1.9,6.4-2.3,6.4-2.3l6.6,0.2c0,0,12.5-0.2,11.6,8.6
	c-0.7,7.1-9,6.6-10.1,6.7L414,36.5C414,36.5,405.1,37.7,403,38.4z"/>
<path class="st0" d="M445.5,30.8c-0.7,0.2-11.7,34-11.6,35.3c0,0.6,0.9-0.5,0,0c-0.9,0.6-2.7-0.5-2.9,0.4c-0.1,0.4-0.5,0.9-0.5,0.9
	l0.9,1.1c0,0-1.9-0.4-1.7,0.7c0,0,2.8-0.1,2,0.3c-0.8,0.4-2.8,0-2.9,0.3c-0.1,0.2,0,0.8,0.4,1.1c0.4,0.3,1.4,0.1,2.5,0.3
	c0.4,0.1,1-0.1,0.8,0.4c-0.2,0.7-4.7,10-4.4,11.3c0.9,3.6,2.4,0,2.4,0l0.7,2.1l1.5-1.5c0,0,0.5,0.4,0.6,0.3
	c0.4-2.8,5.9-16.4,2.8-6.9c0,0-2.1,5.6-1.2,7c0.3,0.5,2,0.7,2,0.7s0.6-2.4,0.9-3.4c0.4-1.5,1.1-6,1.1-5.6c0,0.7,0.1,8.1,0.1,8.1
	s2.9,1.7,2.3,0.1c-0.2-0.6,1.7-11.4,1.7-11.4l10.4,0.2l4,12.7c0,0,2.1,0,2.7-1.4c0.5-1.4-0.9-6-0.9-6l2.9,6.4c0,0,2.7,2.6,1.3-5.6
	c-0.1-0.7,1.5,5.5,1.5,5.5s1.5,1.8,1.7-0.9c0.1-1.7,1.4,0.1,1.4,0.1l-4.4-11.9c0,0,5.4-0.1,4.4-0.7c-0.6-0.3-0.5-1.2-1.2-1.1
	c-3.5,0.6-3-0.2-3-0.2s4.2,0.1,2.6-0.9c-0.4-0.3-1-0.1-1-0.1l-1.7,0.2l2.3-0.8c0,0-4.2,0.4-3.5,0.2c3.4-1,3.4-1,3.4-1l-1.4-1
	c-0.1,0-1.4,0.3-2.7,0.1l-9.8-0.2l-8.5,0c0,0,4.2-15,4.2-14.1c0,0.9,4,14.1,4,14.1l10.3,0.5l-1.8-4.3c0,0-8.1-25.2-11.1-31.6
	C448.5,29.9,445.5,30.8,445.5,30.8z"/>
<path class="st0" d="M496.6,31.4c-0.9,0-1.1,3-1.1,3l0.5,18.1h-3c0,0-2.1,0-2.1,1.4c0,0.3,3.8-0.7,3.5,0.2c-0.2,0.7-3.1,0-2.4,1.1
	c0.3,0.4,3,0,3,0c-4.4,1.9-0.4,1.7,0.5,1.7l-1.9,0.5l0.2,0.6l1.8,0.2c0,0,0.4,20.8-0.3,25.5c-0.1,0.8,2.2,0.6,2.2,0.6
	s0.4-7.4,0.4-6.9s0.3,7.2,0.3,7.2c0.4,0.3,1.7-0.9,1.7-0.9l0-3.5l0.4-4l0.2,4.9l-0.1,2.9c0,0,1.7,0.7,1.9,0.2c0.2-0.5,0-2.9,0-2.9
	c0,0,0,0,0-0.1l0.3-3.6c-0.4-0.3,0.4,2.1,0.2,4.8c0,0.9,2.2,1.1,2.2,1.1l-0.4-5.4l0.4-0.6l0.3,1.4c0,0,0.6,2.5,0.5,3.3
	c-0.2,1.8,1.1,2,1.1,2s-0.4-25.9,0.1-26c1.3-0.2,8.3-0.1,8.3-0.1s0,20.5,0,24.7c0,1.3,1.7,1,1.7,1s1.7,0.2,1.4-1.9
	c0-0.3,0.2-0.8,0.2-0.8l0.4,0.4l0.2,2.3c0,0,1.1,1,1.5,0.7c0.2-0.2,1-2.9,1-2.9s0.6,4.3,1.6,2.9c0.6-0.8,0.3-2.7,0.3-3.8
	c-0.1-1.9,0.2-3.9,0.2-3.9l0.3,7.1l2,0.6c0,0,1.2-0.1,1.3-1.2c0.3-3.3-0.3-25.8-0.3-25.8h1.6c0,0-0.4-0.6,1.4-0.6
	c2,0,2.2-1.5,2.2-1.5l-3.5-0.1l0.4-0.5c0,0,0.9,0.2,1.3,0.1c1.5-0.4,1.9-0.3,1.9-0.3l0.4-1.8c0,0-1.3,0.7-1.7,0.7
	c-1.1,0-3.5,0.6-3.5,0.6l0.5-0.5l3.1-0.5l0.2-1.1l-4,0.1c0,0-0.4-19.5-0.3-21.2c0-0.8-3-0.6-3-0.6l-1.6,0.1l-3.2-0.6
	c0,0-3.4-0.4-4,0.1c-0.7,0.6-0.2,2.7-0.2,4c-0.2,4.7,0,18,0,18l-7.4-0.1c0,0-0.1-12.5,0.1-17.2c0.1-3.4-1.9-3-2.7-3.4
	C503.1,30.3,498.1,31.4,496.6,31.4z"/>
<path class="st0" d="M531.1,30.4c-1.5,1.5,5.4,13.8,5.4,13.8l7,15.3c0,0,0.3,18,0,22.3c-0.4,6.1,0.7,0.3,0.8-0.4
	c0,0-0.4,2.7,0.1,2.8c0.2,0.1,0.4-0.8,0.4-0.8l1.3,0.6c0,0-0.3-3.1,0-5.9c0.2-1.3,0.5-0.1,0.5-0.1s0.1,4.1,0.3,4.6
	c0.3,1.1,1.1-1.9,1.1-1.9s0.1-0.2,0.2,1c0.2,3.1,0.9,3,1.4,0.3c0.1-0.5,0.3,3.1,0.5,2.4c0,0,0.8,0.1,0.8-0.7
	c0.1-1.2,0.3-3.2,0.3-3.2l-0.4-9c0,0,0.7-7.1,0-9.6c-0.2-0.9,0.7,0.7,0.7,0.7l-0.2,16.6c0,0,0.7,2,0.8,2.3c0.3,1.4,1.6,1.2,1.6,1.2
	L554,70l0.3,0.7c0,0,0,5.5,0,6.6c0,1.1,0.9-1.5,1.1-0.1c0,0.3-0.4,7.3-0.4,7.3s1.7,0.4,1.7-0.9c0-1.2-0.9-22.5,0-24.3
	c0.5-1,10.1-19.7,13-24.6c0.7-1.1-1.5,0.7-0.7-0.6c0.6-1.1,0.7-2.9,0.7-2.9l-1.4,0.4c0.1,0.2-1.6,3.8-3.1,5.4
	c-0.3,0.3,0.1-3.4-1.1,0.7c-0.5,1.7-1.8,3.6-2.7,5.6c-0.7,1.6-3.4,7.2-3.4,7.2s2.7-9,4.3-11.6l1.9-4.5c0,0,1-3,0.3-3.3
	c-1.1-0.7-6.6-0.9-6.6-0.9s-1.8,0.7-2.3,2.3c-0.9,3-3.6,11.2-3.6,11.2l-1.3,5l-0.7,1.2c-0.1,0-0.2,6.8-8.2-18.6
	c-0.2-0.5-2.9-0.5-2.9-0.5s1.7,4.1,1.4,4.1s-0.9-1.4-0.9-1.4l-1.2-3.4c0,0-1.2,0-1.5,0c-1.5,0-1.2,0.8-1.2,0.8l1.1,4.1
	c0,0,0.2,1-0.1,0.8c-1-0.5-1.7-4.1-1.7-4.1l-0.7-0.2C533.8,31.5,531.8,29.8,531.1,30.4z"/>
<path class="st0" d="M373.9,4.1c-1.8-0.2-9.4,25.4-15.7,47.5c-0.1,0.2-5.3-0.2-4,0.7c3.5,2.2,3.7,0.1,3.1,1.7c0,0-3.2-0.1-3.3,0.4
	c-0.3,1,1.9,1,1.6,1.4c-0.5,0.5-3.2-0.7-4.2,0.6c-1,1.2,5.4,0.6,3.9,0.6c-4.4,0.2-0.3,0.4-3.4,1.2c-0.4,0.1,4.4-0.2,3.9,1.3
	c-3.3,10.9-5.9,20.6-6.8,22.7c-0.7,1.7,0.4,1.8,0.4,1.8s1.9-4,1.2-1.3c-0.9,3.5-0.6,3.4,0,3.3c2.8-0.4,2.9-3.8,3.3-4.1
	c1.3-0.7-0.8,2.7,0.3,2.4c1-0.3,1.5-2.7,2.2-4.5c0.2-0.6,0.5-1.5,1.1-2.4c1.7-2.3,4.1-18.3,5-18c0.8,0.3-6.3,25.1-6.3,25.1
	c2.8,4.5,4.4-4.5,4.1-2.7c-0.8,4.4,1.7,3,1.7,3l6.3-25.6l11.6,0l-1.9-7.9l-7.8,0.2l4-16.2l3.8,16l0.4,1.8l1.1,4.5l0.3,1.3l5.9,25.3
	c0,0,3.6,2.6,2.9,0.1c-2.9-10.4-6.3-25-1.2-6.4c0.4,1.3,1.5,2.1,1.8,3.3c0.6,2.4,2.1,2.6,1.8,2c-1.1-2.4-1.3-7.2-1.3-7.2
	s4.3,11.2,3.1,5.6c-0.7-3.2-0.5-4.9-1.4-6.9c-1.7-4.2-2.1-8.3-2.5-10.6c-0.8-4.4,0.8-0.8,1.4,4.1c0.3,2.6,3.9,15.7,4.2,16.5
	c0.4,1.1,1.4,1.8,1.4,1.8s0.9-0.4,1.4,0.2c1,1.2,1.8,2.7,3.1,2.7c0.3,0-3.6-13.7-8.4-30.5c-0.1-0.4,4.4,0.1,4.2-0.3
	c-0.6-1.5-0.1-2.2-1.9-2c-1.1,0.1-0.6,0.1-0.9-0.5c-0.1-0.3,0.6,0,0.4-0.9c-0.2-0.7-1.1,0-1.4-0.5c-0.2-0.3,1.2,0.2,1.1-0.7
	c0-0.2-1.4,0,0-0.9c0.5-0.4-1,0.3-1.2,0c-0.1-0.3,1.6-0.4,1.5-0.5c-1.1-0.4-3.5,0.4-3.1,0.1c0.6-0.5,2.8-0.2,2.5-1
	c-0.3-0.9-3.3-0.4-3.4-0.6C383.3,28.7,375.6,4.4,373.9,4.1z"/>
<path class="st1" d="M248.2,33.4c-0.2,0.8,0.3,47.3,0.3,47.3l1,1.7l1.7,2.2l1.1-3.7c0,0-0.1,3.4,0.7,3.7c0.5,0.2,1.9-1.7,1.9-1.7
	l-0.5-6.8c0,0,0.8,2.5,0.8,0.2c0-0.8,0.3-9.3,0.3-9.3l0.3,7.5l0.3,9.3l1.3,0.5v-8.3c0,0,0.6,0.4,0.6,0.6c-0.1,4,0.5,7.7,0.5,7.7
	l2.1,0.1l0.3-52.1l-2-1.4l-3.9-0.3c0,0-4,0.4-4.7,0.7C249.8,31.6,248.2,33.4,248.2,33.4z"/>
<path class="st1" d="M222.1,30.6c0,0-2.4,0-3.2,1.4c-0.2,0.4,0,3.3,0,3.3l0.2,47.5l1.9-0.3l3.6-2.4l4.4-4l-3.3,4.2l-5.5,4.1l2,0.4
	l5.5-1.8c0,0,6.2-4,10.3-5.8c1.9-0.8,3.5-2.7,5.9-3.2c1.4-0.3,2.6-2.6,2.6-2.6s-1.6,0.1-2.7-0.1c-0.9-0.1-4.3,1.1-4.3,1.1l-3.4,2.4
	l3.4-3.6l4.2-1.7l2.6-0.1l1.6-2.3l-2.3,0.2l-3.3,0.3c0,0-2.1,0.5-2.9,0.9c-0.7,0.3-2.6,1.3-2.6,1.3l-2.8,2.3l2.8-3.2l3.8-1.9
	c0,0,4.4,0.1,4.2-1l-5.4,0.1l-3.6,1.5l-4.3,2.6c0,0-0.5-8.6-0.4-17.2c0.2-9.1,0.7-20.6,0.6-20.6c-0.2,0.1-1.1-1.4-1.7-1.6
	C228.1,30.6,222.1,30.6,222.1,30.6z"/>
<path class="st0" d="M458.4,30.4c0,0-2.5,1.5,3,1c0.3,0-0.2,0.3-0.2,0.3l-5.4,0.2l0.7,1.6l11.2-0.1c0,0,0.5,0.6-8.3,0.3
	c-1.6,0-0.3,0.4-0.3,0.4s-1.4,1.3-0.4,1.3c1,0,1.3,0,1.3,0s1.3-0.1,1.3,0.4c0,0.7-2-0.6-0.8,1.1l4.6,0c0,0-2.5,1.1-5,0.5
	c-0.4-0.1-0.2,1.5,0.1,1.4c0.3-0.1,9.5-0.3,9.5-0.3l0.1,40.6c0,0,0,0.6,1-0.2c0.9-0.7,0.5-0.4,0.7-3.4c0.1-2.7-0.6-6.4,0.3-4.8
	l0.1-11.1l0.2,15.8c0,0,0.4,5.8,0.3,7.8c0,0.5,1.6,1.6,1.9,1.3c0.3-0.4,0.3-11.8,0.3-11.8l0.5,6.4v6.1c0,0,0.2,1.8,0.7,1.9
	c1,0.2,1.3-0.9,1.3-0.9l-0.2-9.4c0,0-0.3-8-0.2-11c0-4.4-0.3-17.3-0.3-17.3l1.1,21.2l0.2,12.3c0,0,0.4,0.6,0.8,1.7
	c0.2,0.6,1.8,1.2,1.8,1.2l1.2-1.1c0,0-0.2-44.6,0.6-44.8c2.3-0.6,11.9-0.3,11.9-0.3s0-0.6,0-1.5c0-0.2-1.6-0.2-1.3-0.5
	c1.1-1.2,2.7-1.4,0.5-1.7c-0.5-0.1-2.1,0.4-2.1-0.1c0-1.4,4.3-1,3-1.2c-6.1-0.9-0.1-0.6,0-0.9c0.5-0.8,0-1.8-0.1-1.8
	c-0.2-0.1-4-0.3-6.2-0.2C477.5,31.2,458.4,30.4,458.4,30.4z"/>
<path class="st1" d="M194.8,30.6c0,0-2.4,0-3.2,1.4c-0.2,0.4,0,3.3,0,3.3l0.2,47.5l1.9-0.3l3.6-2.4l4.4-4l-3.3,4.2l-5.5,4.1l2,0.4
	l5.5-1.8c0,0,6.2-4,10.3-5.8c1.9-0.8,3.5-2.7,5.9-3.2c1.4-0.3,2.6-2.6,2.6-2.6s-1.6,0.1-2.7-0.1c-0.9-0.1-4.3,1.1-4.3,1.1l-3.4,2.4
	l3.4-3.6l4.2-1.7l2.6-0.1l1.6-2.3l-2.3,0.2l-3.3,0.3c0,0-2.1,0.5-2.9,0.9c-0.7,0.3-2.6,1.3-2.6,1.3l-2.8,2.3l2.8-3.2l3.8-1.9
	c0,0,4.4,0.1,4.2-1l-5.4,0.1l-3.6,1.5l-4.3,2.6c0,0-0.5-8.6-0.4-17.2c0.2-9.1,0.7-20.6,0.6-20.6c-0.2,0.1-1.1-1.4-1.7-1.6
	C200.7,30.6,194.8,30.6,194.8,30.6z"/>
<linearGradient id="SVGID_1_" gradientUnits="userSpaceOnUse" x1="360.2198" y1="75.773" x2="361.7808" y2="75.773" gradientTransform="matrix(1.061 0.3092 0.2838 -0.9739 -42.6577 25.8395)">
	<stop  offset="0" style="stop-color:#D73515"/>
	<stop  offset="0.2596" style="stop-color:#F15A24"/>
	<stop  offset="0.4046" style="stop-color:#EC5425"/>
	<stop  offset="0.6145" style="stop-color:#C1272D"/>
	<stop  offset="0.9742" style="stop-color:#FFFFFF"/>
</linearGradient>
<path class="st2" d="M360.8,70c-1.2,0.5,1.2-9.7,1.4-10.6c0,0,0-0.1,0-0.1l0.7-2C363,57.3,361.4,69.8,360.8,70z"/>
<linearGradient id="SVGID_2_" gradientUnits="userSpaceOnUse" x1="343.15" y1="55.1066" x2="374.3778" y2="55.1066">
	<stop  offset="0" style="stop-color:#D73515"/>
	<stop  offset="0.226" style="stop-color:#FF0000"/>
	<stop  offset="0.4046" style="stop-color:#EC5425"/>
	<stop  offset="0.6145" style="stop-color:#C1272D"/>
	<stop  offset="0.9673" style="stop-color:#FFFFFF"/>
</linearGradient>
<path class="st3" d="M343.3,52.4c-1.6-1.6,12.3-0.3,16.2-1.1c4.6-1,5.7-17.3,1.8,0.2c-0.3,1.3,5.1,0.2,5.1,0.2l6.1,0
	c0,0-2.2,0.7-2.9,0.9c-0.2,0-0.4,0.1-0.6,0.2c-0.2,0.1,5.1,2.7,5.3,0.4c0.1-0.7-5.4,0-7.2,0.2c-2.6,0.3-1.7,1.4-1.7,1.4
	s6.1-0.9,6-0.2c-0.1,1-3.1,1.9-7.4,1.7c-2.1-0.1-1.4,0.8-0.9,0.7c0.3-0.1,10.5,0.6,11.2,0.8c1.2,0.5-6.9,0.8-6.9,0.8
	s-2.6-1.3-4.6,1.6c-1,1.4,0.5-2.5-0.9-1.8c-0.6,0.3-0.8,0.7-1.1,1.3c-0.4,0.8-0.7,2.1-1.2,4.4c-0.7,3.2-1.1,2.7-1.1,2.7s0.4-2,1-4.6
	c0.2-1,0.3-3.5,0.3-3.5s-0.7,0.2-0.9,0.7c-0.3,0.5-1.2,5.5-1.2,0.3c0-1.7-1.3,3.9-1.5,4.5c-0.1,0.4,0.6-4.7,0-4.8
	c-2.8-0.7-8.3-0.2-10.2,0.3c-0.5,0.1,0.6-2.1,2.1-1.9c2.4,0.3,2.8-2,0.7-2c-2.9,0-3.7,0.3-3.9-0.2c-0.4-0.8,3.5,0.2,5.6-0.4
	c0.3-0.1,0.5-0.2,0.7-0.4c0.4-0.3-3.6,0.1-4.2-0.2c-0.4-0.2,2.5-1.2,2.5-1.2S344.1,53.2,343.3,52.4z"/>
<linearGradient id="SVGID_3_" gradientUnits="userSpaceOnUse" x1="358.0768" y1="47.609" x2="366.4208" y2="47.609" gradientTransform="matrix(0.9922 0.1249 -0.1249 0.9922 8.5133 -45.2005)">
	<stop  offset="4.745371e-02" style="stop-color:#F15A24"/>
	<stop  offset="0.4046" style="stop-color:#EC5425"/>
	<stop  offset="0.7581" style="stop-color:#C1272D"/>
	<stop  offset="0.989" style="stop-color:#FFFFFF"/>
</linearGradient>
<path class="st4" d="M360,53.8c5.1-0.4,6.3-16.4,6.9-12.5c0.2,1.2-0.9,4.8-0.9,4.8l-0.5,4c-0.1,0.9-0.8,1.7-1.8,1.9
	C360.2,52.8,352.8,54.3,360,53.8z"/>
<linearGradient id="SVGID_4_" gradientUnits="userSpaceOnUse" x1="360.1551" y1="48.0785" x2="368.0626" y2="48.0785" gradientTransform="matrix(0.693 0.2912 -0.4428 1.0539 134.3426 -107.4073)">
	<stop  offset="0" style="stop-color:#D73515"/>
	<stop  offset="0.2596" style="stop-color:#F15A24"/>
	<stop  offset="0.4046" style="stop-color:#EC5425"/>
	<stop  offset="0.7581" style="stop-color:#C1272D"/>
	<stop  offset="0.9773" style="stop-color:#FFFFFF"/>
</linearGradient>
<path class="st5" d="M363.7,53.5c0.6-1.9,1.8-2.7,2.6-3.2c3.5-2.1,2.3-6.8,4.4-7.5c0.6-0.2-1.2,4.2-1.2,4.2s-1.4,3.8-2.7,4.7
	c-2.5,1.7-0.3,2.4-3.7,3.5c-4.4,1.4-4.1-0.3-2.3-0.1C362.8,55.4,363.7,53.7,363.7,53.5z"/>
<linearGradient id="SVGID_5_" gradientUnits="userSpaceOnUse" x1="356.3324" y1="58.248" x2="361.2822" y2="58.248" gradientTransform="matrix(0.6869 0.6604 -0.693 0.7209 152.9408 -221.1994)">
	<stop  offset="0" style="stop-color:#F15A24"/>
	<stop  offset="4.112930e-03" style="stop-color:#FF6715"/>
	<stop  offset="0.2903" style="stop-color:#EC5425"/>
	<stop  offset="1" style="stop-color:#C1272D"/>
</linearGradient>
<path class="st6" d="M361.2,58.9c-0.5-0.4-0.3-1.1-1.2-1.1c-2.1,0.1-4.9-0.9-2.6-1.2C359.3,56.4,361.3,57.7,361.2,58.9"/>
<g>
	<linearGradient id="SVGID_6_" gradientUnits="userSpaceOnUse" x1="359.5818" y1="57.3208" x2="375.2357" y2="57.3208">
		<stop  offset="0" style="stop-color:#D73515"/>
		<stop  offset="0.226" style="stop-color:#FF0000"/>
		<stop  offset="0.4046" style="stop-color:#EC5425"/>
		<stop  offset="0.6145" style="stop-color:#C1272D"/>
		<stop  offset="0.9821" style="stop-color:#FFFFFF"/>
	</linearGradient>
	<path class="st7" d="M359.6,56.8c2.1-0.7,4,1.4,6.2,1.5c1.1,0.1,2.3-0.4,3.3-0.9c1.1-0.5,2.2-1.1,3.3-1.2c1.1-0.1,2.3,0.4,2.8,1.6"
		/>
	<g>
		<linearGradient id="SVGID_7_" gradientUnits="userSpaceOnUse" x1="359.5452" y1="57.3153" x2="375.3389" y2="57.3153">
			<stop  offset="0" style="stop-color:#D73515"/>
			<stop  offset="0.1389" style="stop-color:#C1272D"/>
			<stop  offset="0.4596" style="stop-color:#F15A24"/>
			<stop  offset="0.7105" style="stop-color:#EC5425"/>
			<stop  offset="0.9715" style="stop-color:#FFFFFF"/>
		</linearGradient>
		<path class="st8" d="M359.7,57.2c1.3-0.4,2.5,0.3,3.7,0.8c1.1,0.5,2.1,0.8,3.3,0.7c2.3-0.4,6.6-4,8.3-0.6c0.2,0.4,0.8,0,0.6-0.3
			c-0.5-1.1-1.7-1.7-2.9-1.7c-1.7,0-3.2,1.1-4.7,1.7c-0.9,0.3-1.8,0.6-2.7,0.4c-0.7-0.2-1.4-0.5-2.1-0.8c-1.2-0.5-2.4-1-3.6-0.6
			C359.1,56.6,359.3,57.3,359.7,57.2L359.7,57.2z"/>
	</g>
</g>
<g>
	
		<linearGradient id="SVGID_8_" gradientUnits="userSpaceOnUse" x1="355.1194" y1="65.2429" x2="358.0796" y2="65.2429" gradientTransform="matrix(0.9995 3.016423e-02 -3.016423e-02 0.9995 2.1297 -10.7244)">
		<stop  offset="0" style="stop-color:#D73515"/>
		<stop  offset="0.2596" style="stop-color:#F15A24"/>
		<stop  offset="0.4046" style="stop-color:#EC5425"/>
		<stop  offset="0.6145" style="stop-color:#C1272D"/>
		<stop  offset="0.9742" style="stop-color:#FFFFFF"/>
	</linearGradient>
	<path class="st9" d="M357.8,59.5c0.7,1.2,0.5,2.7,0,3.9c-0.5,1.3-1.3,2.4-2,3.6c-0.6,1.2-1,2.6-0.6,3.9"/>
	<g>
		<linearGradient id="SVGID_9_" gradientUnits="userSpaceOnUse" x1="354.8636" y1="65.2359" x2="358.3139" y2="65.2359">
			<stop  offset="0" style="stop-color:#FFFFFF"/>
			<stop  offset="0.2895" style="stop-color:#EC5425"/>
			<stop  offset="0.5404" style="stop-color:#F15A24"/>
			<stop  offset="0.8611" style="stop-color:#C1272D"/>
		</linearGradient>
		<path class="st10" d="M357.4,59.7c1.1,2-0.3,4.2-1.3,5.9c-1,1.6-1.9,3.5-1.4,5.4c0.1,0.4,0.8,0.3,0.7-0.2c-0.6-2.3,1-4.3,2-6.1
			c0.9-1.6,1.5-3.6,0.6-5.4C357.8,59,357.2,59.3,357.4,59.7L357.4,59.7z"/>
	</g>
</g>
<g>
	<g>
		<path class="st1" d="M346.7,70c-0.5,3-0.6,6-0.1,9c0,0.3,0.6,0.4,0.7,0.1c0.4-1,0.7-2,0.6-3c0-0.5-0.8-0.5-0.8,0
			c0,0.9-0.1,1.8-0.5,2.7c0.2,0,0.5,0.1,0.7,0.1c-0.4-2.8-0.4-5.8,0.1-8.6C347.6,69.7,346.8,69.5,346.7,70L346.7,70z"/>
	</g>
</g>
<g>
	<g>
		<path class="st1" d="M344.5,79.1c0,0.9,0,1.8,0,2.7c0,0.2,0.2,0.4,0.4,0.4c0.2,0,0.4-0.2,0.4-0.4c0-0.9,0-1.8,0-2.7
			c0-0.2-0.2-0.4-0.4-0.4C344.6,78.7,344.5,78.9,344.5,79.1L344.5,79.1z"/>
	</g>
</g>
<g>
	<g>
		<path class="st1" d="M330.8,55.1c-0.5-0.1-1-0.2-1.4-0.2c-0.1,0-0.2,0-0.3,0c-0.1,0-0.2,0.1-0.2,0.2c0,0.2,0.1,0.4,0.3,0.5
			c0.5,0.1,1,0.2,1.4,0.2c0.1,0,0.2,0,0.3,0c0.1,0,0.2-0.1,0.2-0.2C331.1,55.4,331,55.1,330.8,55.1L330.8,55.1z"/>
	</g>
</g>
<g>
	<g>
		<path class="st1" d="M331.9,54.6c-0.6,0.1-1.1,0.1-1.7,0.2c-0.2,0-0.4,0.2-0.4,0.4c0,0.2,0.2,0.4,0.4,0.4c0.8,0,1.7-0.2,2.5-0.5
			c0.2-0.1,0.3-0.2,0.3-0.4c0-0.2-0.2-0.3-0.4-0.3c-1.2,0.1-2.3,0.3-3.5,0.4c-0.2,0-0.4,0.2-0.4,0.4c0,0.2,0.2,0.4,0.4,0.4
			c1.2-0.1,2.3-0.3,3.5-0.4c0-0.2-0.1-0.5-0.1-0.7c-0.7,0.3-1.5,0.5-2.3,0.5c0,0.2,0,0.5,0,0.8c0.6-0.1,1.1-0.1,1.7-0.2
			c0.2,0,0.4-0.2,0.4-0.4C332.3,54.8,332.1,54.6,331.9,54.6L331.9,54.6z"/>
	</g>
</g>
<g>
	<g>
		<path class="st1" d="M296.9,34.1c0.1-0.8,0.1-1.6,0.2-2.4c0-0.4-0.7-0.5-0.7-0.1c-0.3,1.5-0.5,3.1-0.8,4.6c0,0.2,0.1,0.4,0.3,0.5
			c0.2,0,0.4-0.1,0.5-0.3c0.3-1.5,0.5-3.1,0.8-4.6c-0.2,0-0.5-0.1-0.7-0.1c-0.1,0.8-0.1,1.6-0.2,2.4
			C296.1,34.6,296.9,34.6,296.9,34.1L296.9,34.1z"/>
	</g>
</g>
<g>
	<g>
		<path class="st1" d="M299.1,35.3c0.3-0.4,0.6-0.8,0.9-1.2c-0.2,0-0.5-0.1-0.7-0.1c0.1,0.1,0.1,0.3,0.2,0.4c0,0.1,0.1,0.2,0.2,0.2
			c0.1,0,0.2,0.1,0.3,0c0.1,0,0.2-0.1,0.2-0.2c0-0.1,0.1-0.2,0-0.3c-0.1-0.1-0.1-0.3-0.2-0.4c0-0.1,0-0.1-0.1-0.2
			c-0.1-0.1-0.1-0.1-0.2-0.1c-0.2,0-0.3,0.1-0.4,0.2c-0.3,0.4-0.6,0.8-0.9,1.2c-0.1,0.1-0.1,0.2,0,0.3c0,0.1,0.1,0.2,0.2,0.2
			c0.1,0,0.2,0.1,0.3,0C298.9,35.4,299,35.4,299.1,35.3L299.1,35.3z"/>
	</g>
</g>
<g>
	<g>
		<path class="st1" d="M299.3,31.6c0,1.5,0,3.1,0.1,4.6c0,0.5,0.8,0.5,0.8,0c0-1.5,0-3.1-0.1-4.6C300,31.1,299.3,31.1,299.3,31.6
			L299.3,31.6z"/>
	</g>
</g>
<g>
	<g>
		<path class="st1" d="M303.2,31.8c0.7,1.2,0.8,2.6,0.4,3.9c-0.2,0.5,0.6,0.7,0.7,0.2c0.5-1.5,0.3-3.2-0.5-4.5
			C303.7,31,303,31.4,303.2,31.8L303.2,31.8z"/>
	</g>
</g>
<g>
	<g>
		<path class="st1" d="M303.2,32c-0.4,0.2-0.8,0.6-1.1,1c-0.1,0.1-0.1,0.2,0,0.3c0,0.1,0.1,0.2,0.2,0.2c0.3,0.1,0.7,0.1,1-0.1
			c0.1-0.1,0.2-0.2,0.2-0.3c0-0.2-0.1-0.3-0.1-0.4c-0.1-0.1-0.2-0.2-0.3-0.3c-0.2-0.2-0.5-0.2-0.8-0.1c-0.2,0.1-0.3,0.2-0.3,0.4
			c0,0.1,0,0.1,0.1,0.2c0,0.1,0.1,0.2,0.2,0.2c0.1,0,0.3,0,0.4,0.1c0.1,0,0.2,0,0.3,0c0.1,0,0.2-0.1,0.2-0.2c0-0.1,0-0.2,0-0.3
			c0-0.1-0.1-0.2-0.2-0.2c-0.1,0-0.3,0-0.4-0.1c0,0.2,0,0.5,0,0.7c0,0,0.1,0,0.1,0c0,0-0.1,0-0.1,0c0,0,0.1,0,0.1,0c0,0-0.1,0-0.1,0
			c0.1,0,0.1,0,0.2,0c0,0-0.1,0-0.1,0c0.1,0,0.1,0.1,0.2,0.1c0,0-0.1,0-0.1-0.1c0,0,0.1,0.1,0.1,0.1c0,0,0-0.1-0.1-0.1
			c0,0,0.1,0.1,0.1,0.1c0,0,0-0.1,0-0.1c0,0,0,0.1,0,0.1c0,0,0-0.1,0-0.1c0,0,0,0,0,0c0.1-0.1,0.1-0.2,0.2-0.3c0,0,0,0-0.1,0
			c0,0,0.1,0,0.1,0c-0.1,0-0.2,0.1-0.2,0.1c0,0,0.1,0,0.1,0c-0.1,0-0.2,0-0.3,0c0,0,0.1,0,0.1,0c-0.1,0-0.1,0-0.2,0
			c0.1,0.2,0.1,0.4,0.2,0.6c0-0.1,0.1-0.1,0.1-0.2c0,0,0,0.1-0.1,0.1c0.1-0.2,0.3-0.3,0.4-0.4c0,0-0.1,0-0.1,0.1
			c0.1-0.1,0.3-0.2,0.4-0.2c0.1,0,0.1-0.1,0.2-0.2c0-0.1,0-0.2,0-0.3c-0.1-0.1-0.1-0.2-0.2-0.2C303.4,32,303.3,32,303.2,32L303.2,32
			z"/>
	</g>
</g>
<g>
	<g>
		<path class="st1" d="M289.5,82.4c-0.1,0.6,0.1,1.2,0.4,1.7c0.1,0.2,0.4,0.3,0.6,0.1c0.6-0.6,0.7-1.6,0.3-2.4
			c-0.1-0.2-0.3-0.2-0.5-0.1c-0.2,0.1-0.2,0.3-0.1,0.5c0,0,0,0.1,0.1,0.1c0,0,0,0.1,0,0c0,0,0,0,0,0c0,0.1,0,0.2,0.1,0.2
			c0,0,0,0,0,0.1c0,0.1,0,0,0,0c0,0,0,0.1,0,0.1c0,0.1,0,0.2,0,0.2c0,0.1,0,0,0,0c0,0,0,0,0,0.1c0,0,0,0.1,0,0.1c0,0,0,0.1,0,0.1
			c0,0,0,0,0,0.1c0,0,0,0.1,0,0c0-0.1,0,0,0,0c0,0,0,0,0,0.1c0,0,0,0.1-0.1,0.1c0,0,0,0.1-0.1,0.1c0,0,0,0,0,0c0,0,0,0,0,0.1
			c0.2,0,0.4,0.1,0.6,0.1c0-0.1-0.1-0.1-0.1-0.2c0,0,0-0.1,0-0.1c0,0,0,0,0,0c0-0.1-0.1-0.2-0.1-0.4c0,0,0-0.1,0-0.1c0,0,0-0.1,0,0
			c0-0.1,0-0.1,0-0.2c0-0.1,0-0.3,0-0.4c0-0.2-0.2-0.4-0.4-0.4C289.7,82.1,289.5,82.2,289.5,82.4L289.5,82.4z"/>
	</g>
</g>
<g>
	<g>
		<path class="st1" d="M249,80.2c0,0.2,0,0.5,0,0.7c0,0.4,0.6,0.5,0.7,0.1c0.2-0.5,0-1.2-0.4-1.6c-0.2-0.2-0.6-0.1-0.6,0.3
			c0,1.2,0,2.5-0.1,3.7c0.2,0,0.5,0,0.8,0c0-1,0-2,0-3c-0.2,0-0.5,0-0.8,0c0,1,0,2.1,0,3.1c0,0.5,0.7,0.5,0.8,0c0-1.3,0-2.7,0-4
			c0-0.5-0.8-0.5-0.8,0c0.1,1.3,0.1,2.7,0,4c0.2,0,0.5,0,0.8,0c0-1,0-2.1,0-3.1c0-0.5-0.7-0.5-0.8,0c0,1,0,2,0,3
			c0,0.5,0.7,0.5,0.8,0c0-1.2,0-2.5,0.1-3.7c-0.2,0.1-0.4,0.2-0.6,0.3c0.2,0.2,0.3,0.5,0.2,0.8c0.2,0,0.5,0.1,0.7,0.1
			c0-0.2,0-0.5,0-0.7C249.8,79.7,249,79.7,249,80.2L249,80.2z"/>
	</g>
</g>
<g>
	<g>
		<path class="st1" d="M254.9,73.7c0.1,2.3,0.2,4.6,0.3,7c0,0.5,0.8,0.5,0.8,0c-0.1-2.3-0.2-4.6-0.3-7
			C255.6,73.2,254.8,73.2,254.9,73.7L254.9,73.7z"/>
	</g>
</g>
<g>
	<g>
		<path class="st1" d="M195.4,82.6c-1,0.3-1.9,0.7-2.9,1c-0.2,0.1-0.3,0.3-0.3,0.5c0.1,0.2,0.3,0.3,0.5,0.3c0.2-0.1,0.4-0.1,0.7,0
			c0.2,0,0.4-0.1,0.5-0.3c0.1-0.2-0.1-0.4-0.3-0.5c-0.4-0.1-0.7-0.1-1.1,0c0.1,0.2,0.1,0.5,0.2,0.7c1-0.3,1.9-0.7,2.9-1
			c0.2-0.1,0.3-0.3,0.3-0.5C195.8,82.7,195.5,82.5,195.4,82.6L195.4,82.6z"/>
	</g>
</g>
<g>
	<g>
		<path class="st1" d="M161,72.2c1.3,1.9,2.5,3.8,3.8,5.7c0.3,0.4,0.9,0,0.6-0.4c-1.3-1.9-2.5-3.8-3.8-5.7
			C161.4,71.4,160.7,71.8,161,72.2L161,72.2z"/>
	</g>
</g>
<g>
	<g>
		<path class="st1" d="M131.4,77.2c0.2,1.1,0.5,2.2,0.7,3.2c0.2-0.1,0.5-0.1,0.7-0.2c-0.9-3.3-1.3-6.8-1.3-10.2c0-0.5-0.7-0.5-0.8,0
			c-0.1,3.5,0.4,7,1.3,10.4c0.1,0.5,0.8,0.3,0.7-0.2c-0.2-1.1-0.5-2.2-0.7-3.2C132,76.6,131.2,76.8,131.4,77.2L131.4,77.2z"/>
	</g>
</g>
<g>
	<g>
		<path class="st1" d="M128.3,79.6c0.1,1.2,0.2,2.4,0.4,3.6c0.1,0.4,0.7,0.4,0.7,0c0.1-0.6,0.2-1.3,0.3-1.9c0-0.2-0.1-0.4-0.3-0.5
			c-0.2,0-0.4,0.1-0.5,0.3c-0.1,0.6-0.2,1.3-0.3,1.9c0.2,0,0.5,0,0.7,0c-0.2-1.1-0.3-2.2-0.4-3.4c0-0.2-0.2-0.4-0.4-0.4
			C128.4,79.2,128.2,79.4,128.3,79.6L128.3,79.6z"/>
	</g>
</g>
<g>
	<g>
		<path class="st1" d="M162,74.7c0.2,0.1,0.3,0.3,0.4,0.4c0,0,0.1,0.1,0.1,0.1c0,0,0,0,0,0.1c0.1,0.1,0,0,0,0
			c0.1,0.1,0.1,0.2,0.2,0.3c0.1,0.2,0.2,0.3,0.3,0.5c0,0.1,0.1,0.2,0.1,0.3c0,0,0,0.1,0,0.1c0,0,0,0,0,0c0,0.1,0,0.1,0.1,0.2
			c0.1,0.2,0.3,0.3,0.5,0.3c0.2-0.1,0.3-0.3,0.3-0.5c-0.3-0.9-0.8-1.7-1.5-2.3c-0.1-0.1-0.4-0.2-0.5,0
			C161.9,74.3,161.8,74.6,162,74.7L162,74.7z"/>
	</g>
</g>
<g>
	<g>
		<path class="st1" d="M159.3,68.1c0.7,0.8,1.4,1.5,2.1,2.3c0.2-0.2,0.4-0.4,0.5-0.5c-0.7-0.7-1.5-1.4-2.2-2.1
			c-0.4-0.3-0.8,0.2-0.5,0.5c1,1.2,2.1,2.5,3.1,3.7c0.1,0.2,0.4,0.1,0.5,0c0.2-0.2,0.1-0.4,0-0.5c-1-1.2-2.1-2.5-3.1-3.7
			c-0.2,0.2-0.4,0.4-0.5,0.5c0.7,0.7,1.5,1.4,2.2,2.1c0.3,0.3,0.9-0.2,0.5-0.5c-0.7-0.8-1.4-1.5-2.1-2.3
			C159.5,67.2,158.9,67.7,159.3,68.1L159.3,68.1z"/>
	</g>
</g>
<g>
	<g>
		<path class="st1" d="M157.2,12.1c0.8-1.1,1.5-2.2,2.3-3.2c-0.2-0.1-0.5-0.2-0.7-0.3c-0.5,1.3-1.3,2.5-2.2,3.6
			c-0.1,0.2-0.2,0.4,0,0.5c0.1,0.1,0.4,0.2,0.5,0c1-1.2,1.8-2.5,2.4-3.9c0.1-0.2-0.1-0.4-0.2-0.4c-0.2-0.1-0.4,0-0.5,0.2
			c-0.8,1.1-1.5,2.2-2.3,3.2c-0.1,0.2,0,0.4,0.1,0.5C156.8,12.4,157.1,12.3,157.2,12.1L157.2,12.1z"/>
	</g>
</g>
<g>
	<g>
		<path class="st1" d="M163.4,4.7c-1.5,1.9-2.7,4-3.8,6.1c-0.2,0.4,0.4,0.8,0.6,0.4c1.1-2.2,2.3-4.2,3.8-6.1c0.1-0.2,0-0.4-0.1-0.5
			C163.7,4.5,163.5,4.6,163.4,4.7L163.4,4.7z"/>
	</g>
</g>
<g>
	<g>
		<path class="st0" d="M106.9,64.5c-0.2,2.8-0.3,5.7-0.3,8.5c0,0.5,0.7,0.5,0.8,0c0-2.8,0.1-5.7,0.3-8.5
			C107.7,64,106.9,64,106.9,64.5L106.9,64.5z"/>
	</g>
</g>
<g>
	<path class="st0" d="M107.3,65.3c-0.7,5.3-0.6,10.8,0.3,16.1"/>
	<g>
		<path class="st0" d="M106.9,65.3c-0.7,5.4-0.6,10.8,0.3,16.2c0.1,0.5,0.8,0.3,0.7-0.2c-0.9-5.3-1-10.6-0.3-16
			C107.7,64.8,107,64.8,106.9,65.3L106.9,65.3z"/>
	</g>
</g>
<g>
	<path class="st0" d="M64,83c0,0.4,0.1,0.8,0.1,1.2c0.2-0.3-0.2-0.8-0.5-0.6c-0.1,0.3,0,0.5,0.1,0.8c0-0.2,0.1-0.4,0.1-0.6"/>
	<g>
		<path class="st0" d="M63.7,83c0,0.4,0.1,0.8,0.1,1.2c0,0.1,0,0.2,0.1,0.2c0,0.1,0.1,0.1,0.2,0.1c0.2,0,0.3,0,0.4-0.2
			c0.3-0.5,0-1.1-0.5-1.2c-0.1,0-0.3,0-0.4,0c-0.1,0-0.3,0.1-0.3,0.3c0,0.1,0,0.2,0,0.2c0,0.3,0.1,0.6,0.2,0.8
			c0.1,0.1,0.2,0.2,0.4,0.2c0.1,0,0.3-0.1,0.3-0.3c0-0.2,0.1-0.4,0.1-0.6c0-0.1,0-0.2,0-0.3c0-0.1-0.1-0.2-0.2-0.2
			c-0.2,0-0.4,0.1-0.5,0.3c0,0.2-0.1,0.4-0.1,0.6c0.2,0,0.5-0.1,0.7-0.1c0,0,0-0.1,0-0.1c0-0.1,0,0,0,0c0,0,0,0,0-0.1
			c0-0.1,0-0.1,0-0.2c0,0,0,0.1,0,0.1c0-0.1,0-0.2,0-0.3c0,0,0,0.1,0,0.1c0,0,0,0,0-0.1c-0.1,0.1-0.1,0.1-0.2,0.2c-0.1,0.1,0,0,0,0
			c0,0-0.1,0-0.1,0c0,0,0.1,0,0.1,0c0,0-0.1,0-0.1,0c0,0,0,0,0.1,0c0.1,0,0,0,0,0c0,0,0,0,0,0c0,0,0.1,0.1,0,0c0,0,0,0,0.1,0
			c0,0,0,0,0,0c0,0-0.1-0.1,0,0c0,0,0,0,0,0.1c0,0,0,0.1,0,0c0-0.1,0,0,0,0c0,0,0,0,0,0.1c0,0,0-0.1,0-0.1c0,0,0,0.1,0,0.1
			c0,0,0-0.1,0-0.1c0,0,0,0,0,0.1c0,0.1,0.1-0.1,0,0c0.2,0.1,0.5,0.1,0.7,0.2c0-0.4-0.1-0.8-0.1-1.2c0-0.1,0-0.2-0.1-0.3
			c-0.1-0.1-0.2-0.1-0.3-0.1C63.9,82.6,63.6,82.8,63.7,83L63.7,83z"/>
	</g>
</g>
<g>
	<g>
		<path class="st0" d="M54.1,36.5c3.2-1.5,6.7-2,10.3-1.7c0.5,0,0.5-0.7,0-0.8c-3.6-0.3-7.3,0.3-10.6,1.8
			C53.3,36.1,53.7,36.7,54.1,36.5L54.1,36.5z"/>
	</g>
</g>
<g>
	<path class="st0" d="M55.8,35.1c3.6-1.1,7.4-1.5,11.1-1"/>
	<g>
		<path class="st0" d="M55.9,35.4c3.6-1.1,7.3-1.5,11-1c0.5,0.1,0.5-0.7,0-0.8c-3.8-0.5-7.6-0.1-11.2,1
			C55.2,34.9,55.4,35.6,55.9,35.4L55.9,35.4z"/>
	</g>
</g>
<g>
	<g>
		<path class="st0" d="M56.9,37.6c-0.5,0.2-1,0.4-1.4,0.6c0.2,0.2,0.3,0.4,0.5,0.6c0.1-0.1,0.1-0.2,0.2-0.3c0.1-0.1,0.1-0.2,0.1-0.3
			c0-0.1,0-0.2-0.1-0.3c-0.1-0.1-0.4-0.2-0.5,0c-0.1,0.1-0.1,0.2-0.2,0.3c-0.1,0.1-0.1,0.2-0.1,0.3c0,0.1,0,0.2,0.1,0.2
			c0.1,0.2,0.3,0.2,0.5,0.1c0.5-0.2,1-0.4,1.4-0.6c0.1,0,0.2-0.1,0.2-0.2c0-0.1,0-0.2,0-0.3c-0.1-0.1-0.1-0.2-0.2-0.2
			C57.1,37.5,57,37.6,56.9,37.6L56.9,37.6z"/>
	</g>
</g>
<g>
	<g>
		<path d="M88.9,81.2c0.6,1,1.3,2.1,1.9,3.1c0.3,0.4,0.9,0,0.6-0.4c-0.6-1-1.3-2.1-1.9-3.1C89.3,80.4,88.7,80.8,88.9,81.2L88.9,81.2
			z"/>
	</g>
</g>
<g>
	<g>
		<path class="st0" d="M88.4,81.1c1.1,1,2,2.1,2.8,3.3c0.3,0.4,0.9,0,0.6-0.4C91,82.7,90,81.6,89,80.5
			C88.6,80.2,88.1,80.7,88.4,81.1L88.4,81.1z"/>
	</g>
</g>
<g>
	<path class="st0" d="M89.6,81.3c1.1,1.1,2.1,2.4,2.9,3.8c-0.6-0.3-1.2-0.7-1.6-1.3"/>
	<g>
		<path class="st0" d="M89.4,81.6c1.1,1.1,2.1,2.3,2.8,3.7c0.2-0.2,0.3-0.3,0.5-0.5c-0.6-0.3-1.1-0.7-1.4-1.2
			c-0.3-0.4-0.9,0-0.6,0.4c0.4,0.6,1,1.1,1.7,1.5c0.3,0.1,0.7-0.2,0.5-0.5c-0.8-1.4-1.8-2.7-3-3.8C89.5,80.7,89,81.2,89.4,81.6
			L89.4,81.6z"/>
	</g>
</g>
<g>
	<path class="st0" d="M43.5,65.4c1.3,3.3,2.1,6.9,2.3,10.5"/>
	<g>
		<path class="st0" d="M43.2,65.5c1.3,3.3,2.1,6.8,2.2,10.4c0,0.5,0.8,0.5,0.8,0c-0.2-3.6-0.9-7.2-2.3-10.6
			C43.7,64.8,43,65,43.2,65.5L43.2,65.5z"/>
	</g>
</g>
<g>
	<path class="st0" d="M12.3,75.9c0,1.8-0.4,3.6-1,5.3"/>
	<g>
		<path class="st0" d="M11.9,75.9c0,1.8-0.4,3.5-1,5.2c-0.2,0.4,0.5,0.6,0.7,0.2c0.7-1.7,1-3.6,1-5.4C12.7,75.4,11.9,75.4,11.9,75.9
			L11.9,75.9z"/>
	</g>
</g>
<g>
	<g>
		<path d="M389.2,79.7c0,0-0.1-0.1-0.1-0.1c0,0-0.1-0.1-0.1-0.1c0,0-0.1,0-0.1,0c-0.1,0-0.1,0-0.1,0c0,0-0.1,0-0.1,0.1
			c0,0,0,0.1-0.1,0.1c0,0.1-0.1,0.1-0.1,0.2c0,0,0,0.1,0,0.1c0,0.1,0,0.1,0.1,0.2c0,0,0.1,0.1,0.1,0.1c0,0,0.1,0.1,0.1,0.1
			c0,0,0.1,0,0.1,0c0.1,0,0.1,0,0.1,0c0,0,0.1,0,0.1-0.1c0,0,0-0.1,0.1-0.1c0-0.1,0.1-0.1,0.1-0.2c0,0,0-0.1,0-0.1
			C389.3,79.8,389.3,79.8,389.2,79.7L389.2,79.7z"/>
	</g>
</g>
<g>
	<g>
		<path class="st0" d="M388.1,78.6c0.6,2.7,1.4,5.4,2.2,8.1c0.2-0.1,0.4-0.2,0.6-0.4c0,0-0.1-0.1-0.1-0.1c-0.3-0.3-0.9,0.2-0.5,0.5
			c0,0,0.1,0.1,0.1,0.1c0.3,0.3,0.7,0,0.6-0.4c-0.8-2.7-1.6-5.4-2.2-8.1C388.7,77.9,388,78.1,388.1,78.6L388.1,78.6z"/>
	</g>
</g>
<g>
	<g>
		<path class="st0" d="M389.9,83.1c0.3,1.1,0.6,2.1,0.9,3.2c0.1,0.2,0.3,0.3,0.5,0.3c0.2-0.1,0.3-0.3,0.3-0.5c0-0.1,0-0.2-0.1-0.3
			c0-0.2-0.3-0.3-0.5-0.3c-0.2,0.1-0.3,0.3-0.3,0.5c0,0.1,0,0.2,0.1,0.3c0.2-0.1,0.5-0.1,0.7-0.2c-0.3-1.1-0.6-2.1-0.9-3.2
			C390.5,82.4,389.8,82.6,389.9,83.1L389.9,83.1z"/>
	</g>
</g>
<g>
	<g>
		<path class="st0" d="M408.3,80.2c0,1.5-0.1,2.9-0.1,4.4c0.2,0,0.5,0,0.8,0c0-1.4,0-2.7-0.1-4.1c0-0.4-0.7-0.5-0.7-0.1
			c-0.1,0.8-0.2,1.5-0.2,2.3c0,0.4,0.1,0.8,0.1,1.2c0,0.3,0.1,0.7,0.2,1c0.2,0.3,0.4,0.4,0.7,0.4c0.3-0.1,0.5-0.4,0.5-0.7
			c0.1-0.8,0.1-1.6,0.1-2.4c0-0.5-0.7-0.5-0.8,0c0,0.6,0,1.2-0.1,1.8c0,0.2,0,0.3,0,0.5c0,0,0,0.1,0,0.1c0,0.1-0.1,0,0.1,0
			c0,0,0.1,0,0.1,0c0,0,0-0.1,0-0.1c0-0.1-0.1-0.3-0.1-0.4c-0.2-1.1-0.2-2.3,0-3.4c-0.2,0-0.5-0.1-0.7-0.1c0,1.4,0,2.7,0.1,4.1
			c0,0.5,0.7,0.5,0.8,0c0-1.5,0.1-2.9,0.1-4.4C409.1,79.7,408.3,79.7,408.3,80.2L408.3,80.2z"/>
	</g>
</g>
<g>
	<g>
		<path class="st0" d="M417.5,59.5c1.1-0.2,2.3-0.3,3.4-0.5c0.2,0,0.3-0.3,0.3-0.5c-0.1-0.2-0.3-0.3-0.5-0.3
			c-1.1,0.2-2.3,0.3-3.4,0.5c-0.2,0-0.3,0.3-0.3,0.5C417.1,59.5,417.3,59.6,417.5,59.5L417.5,59.5z"/>
	</g>
</g>
<g>
	<g>
		<path class="st0" d="M399.4,38.2c5-3.3,11.4-4.1,17.1-2.2c0.5,0.2,0.7-0.6,0.2-0.7c-5.9-2-12.5-1.2-17.7,2.3
			C398.6,37.8,399,38.4,399.4,38.2L399.4,38.2z"/>
	</g>
</g>
<g>
	<g>
		<path class="st0" d="M400.2,35.9c-0.7-0.1-1.5,0-2.1,0.5c-0.2,0.1-0.3,0.3-0.1,0.5c0.1,0.2,0.3,0.2,0.5,0.1
			c0.5-0.2,0.9-0.4,1.4-0.7c0.2-0.1,0.2-0.3,0.2-0.5c-0.1-0.2-0.3-0.3-0.4-0.2c-0.2,0.1-0.4,0.1-0.6,0.2c-0.2,0.1-0.3,0.3-0.3,0.5
			c0.1,0.2,0.3,0.3,0.5,0.3c0.2-0.1,0.4-0.1,0.6-0.2c-0.1-0.2-0.2-0.5-0.3-0.7c-0.5,0.2-0.9,0.4-1.4,0.7c0.1,0.2,0.3,0.4,0.4,0.6
			c0.1-0.1,0.3-0.2,0.4-0.2c0,0,0.1-0.1,0.1,0c0,0,0.1,0,0.1,0c0.1,0,0.1,0,0.2-0.1c0.1,0,0.1,0,0.2,0c0,0,0,0,0,0c0,0,0,0,0.1,0
			c0,0,0.1,0,0.1,0c0.1,0,0.2,0,0.2,0c0,0,0.1,0,0.1,0c0,0,0,0,0.1,0c0,0-0.1,0,0,0c0.2,0,0.4,0,0.5-0.3
			C400.5,36.1,400.5,35.9,400.2,35.9L400.2,35.9z"/>
	</g>
</g>
<g>
	<g>
		<path class="st0" d="M401.8,33.7c2.2-0.6,4.4-1,6.6-1.1c0.5,0,0.5-0.8,0-0.7c-2.8,0.1-5.5,0.8-8.1,1.9c-0.4,0.2-0.1,0.8,0.3,0.7
			c2.9-0.9,5.8-1.7,8.7-2.6c0.5-0.1,0.3-0.9-0.2-0.7c-1.1,0.3-2.1,0.6-3.2,0.9c-0.4,0.1-0.3,0.8,0.1,0.7c2.8-0.3,5.6-0.6,8.4-0.9
			c0.5-0.1,0.5-0.8,0-0.8c-2.8,0.3-5.6,0.6-8.4,0.9c0,0.2,0.1,0.5,0.1,0.7c1.1-0.3,2.1-0.6,3.2-0.9c-0.1-0.2-0.1-0.5-0.2-0.7
			c-2.9,0.9-5.8,1.7-8.7,2.6c0.1,0.2,0.2,0.5,0.3,0.7c2.4-1.1,5-1.7,7.7-1.8c0-0.2,0-0.5,0-0.7c-2.3,0.1-4.6,0.5-6.8,1.1
			C401.1,33.1,401.3,33.8,401.8,33.7L401.8,33.7z"/>
	</g>
</g>
<g>
	<g>
		<path class="st0" d="M458.9,80.7c0.3,1.4,0.6,2.8,0.9,4.2c0.2-0.1,0.5-0.1,0.7-0.2c-0.2-0.8-0.5-1.7-0.7-2.5
			c-0.1-0.5-0.9-0.3-0.7,0.2c0.2,0.8,0.5,1.7,0.7,2.5c0.1,0.5,0.8,0.3,0.7-0.2c-0.3-1.4-0.6-2.8-0.9-4.2
			C459.5,80,458.8,80.2,458.9,80.7L458.9,80.7z"/>
	</g>
</g>
<g>
	<g>
		<path class="st0" d="M504.8,77c-0.7,2.3-0.9,4.7-0.8,7c0.2-0.1,0.4-0.2,0.6-0.3c-0.3-0.3-0.3-0.7-0.1-1c0.2-0.4-0.5-0.6-0.7-0.2
			c-0.2,0.6-0.1,1.3,0.3,1.7c0.2,0.2,0.7,0.1,0.6-0.3c-0.2-2.3,0.1-4.6,0.7-6.8C505.7,76.8,505,76.6,504.8,77L504.8,77z"/>
	</g>
</g>
<g>
	<g>
		<path class="st0" d="M554.2,76.6c0,1.1-0.1,2.2-0.1,3.3c0.2,0,0.5,0,0.8,0c0-1.2,0.1-2.4,0.1-3.6c-0.2,0.1-0.5,0.1-0.7,0.2
			c0.2,0.5,0.5,1,0.7,1.5c0.1,0.2,0.3,0.2,0.5,0.1c0.2-0.1,0.2-0.3,0.1-0.5c-0.2-0.5-0.5-1-0.7-1.5c-0.2-0.4-0.7-0.2-0.7,0.2
			c0,1.2-0.1,2.4-0.1,3.6c0,0.5,0.7,0.5,0.8,0c0-1.1,0.1-2.2,0.1-3.3C554.9,76.1,554.2,76.1,554.2,76.6L554.2,76.6z"/>
	</g>
</g>
<g>
	<g>
		<path class="st0" d="M564.9,34.3c-1.5,3.9-2.9,7.7-4.4,11.6c-0.2,0.5,0.6,0.6,0.7,0.2c1.5-3.9,2.9-7.7,4.4-11.6
			C565.8,34,565.1,33.8,564.9,34.3L564.9,34.3z"/>
	</g>
</g>
<g>
	<g>
		<path class="st0" d="M565.2,34.8c-0.3,1.1-0.5,2.3-0.8,3.4c-0.1,0.5,0.6,0.7,0.7,0.2c0.3-1.1,0.5-2.3,0.8-3.4
			C566,34.5,565.3,34.3,565.2,34.8L565.2,34.8z"/>
	</g>
</g>
</svg>
