<?xml version="1.0" encoding="utf-8"?>
<!-- Generator: Adobe Illustrator 25.2.1, SVG Export Plug-In . SVG Version: 6.00 Build 0)  -->
<svg version="1.1" id="Layer_2" xmlns="http://www.w3.org/2000/svg" xmlns:xlink="http://www.w3.org/1999/xlink" x="0px" y="0px"
	 viewBox="0 0 571.9 92.5" style="enable-background:new 0 0 571.9 92.5;" xml:space="preserve">
<style type="text/css">
	.st0{fill:#C1272D;}
	.st1{fill:url(#SVGID_1_);}
	.st2{fill:url(#SVGID_2_);}
	.st3{fill:url(#SVGID_3_);}
	.st4{fill:url(#SVGID_4_);}
	.st5{fill:url(#SVGID_5_);}
	.st6{fill:url(#SVGID_6_);}
	.st7{fill:url(#SVGID_7_);}
</style>
<path d="M28.4,3.5C26.6,3.2,19,28.9,12.7,50.9c-0.1,0.2-5.3-0.2-4,0.7c3.5,2.2,3.7,0.1,3.1,1.7c0,0-3.2-0.1-3.3,0.4
	c-0.3,1,1.9,1,1.6,1.4c-0.5,0.5-3.2-0.7-4.2,0.6c-1,1.2,5.4,0.6,3.9,0.6c-4.4,0.2-0.4,1.4-3.5,2.2c-0.4,0.1,4.2-0.1,4,0.3
	C7.1,70.2,4.5,79.5,3.6,81.5c-0.7,1.7,0.4,1.8,0.4,1.8s1.9-4,1.2-1.3c-0.9,3.5-0.6,3.4,0,3.3c2.8-0.4,2.9-3.8,3.3-4.1
	c1.3-0.7-0.8,2.7,0.3,2.4c1-0.3,1.5-2.7,2.2-4.5c0.2-0.6,0.5-1.5,1.1-2.4c1.7-2.3,4.1-18.3,5-18c0.8,0.3-6.3,25.1-6.3,25.1
	c2.8,4.5,4.4-4.5,4.1-2.7c-0.8,4.4,1.7,3,1.7,3l6.3-25.6l11.6,0l-1.9-7.9l-7.8,0.2l4-16.2l3.8,16l0.4,1.8l1.1,4.5l0.3,1.3l5.9,25.3
	c0,0,3.6,2.6,2.9,0.1c-2.9-10.4-6.3-25-1.2-6.4c0.4,1.3,1.5,2.1,1.8,3.3c0.6,2.4,2.1,2.6,1.8,2c-1.1-2.4-1.3-7.2-1.3-7.2
	s4.3,11.2,3.1,5.6c-0.7-3.2-0.5-4.9-1.4-6.9c-1.7-4.2-2.1-8.3-2.5-10.6c-0.8-4.4,0.8-0.8,1.4,4.1c0.3,2.6,3.9,15.7,4.2,16.5
	c0.4,1.1,1.4,1.8,1.4,1.8s0.9-0.4,1.4,0.2c1,1.2,1.8,2.7,3.1,2.7c0.3,0-3.6-13.7-8.4-30.5c-0.1-0.4,4.4,0.1,4.2-0.3
	c-0.6-1.5-0.1-2.2-1.9-2c-1.1,0.1-0.6,0.1-0.9-0.5c-0.1-0.3,0.6,0,0.4-0.9c-0.2-0.7-1.1,0-1.4-0.5c-0.2-0.3,1.2,0.2,1.1-0.7
	c0-0.2-1.4,0,0-0.9c0.5-0.4-1,0.3-1.2,0c-0.1-0.3,1.6-0.4,1.5-0.5c-1.1-0.4-3.5,0.4-3.1,0.1c0.6-0.5,2.8-0.2,2.5-1
	c-0.3-0.9-3.3-0.4-3.4-0.6C37.9,28,30.2,3.7,28.4,3.5z"/>
<path d="M57.5,39.4c-0.2,0.9,0,44.6,0,44.6s1.8,0.4,2.2,0c0.5-0.4,0.5-2.5,0.5-2.5c-1.1-3.6,0.3-11.5-0.1,0.4c0,0.7,0.2,3.2,1.7,2.5
	c1.2-0.6,0-2.2,0.9-0.9c0.8,1.1,1.8,0.3,1.5-0.8c0-0.2-0.1,1.3,0,0c0.2-2-0.7-5-0.5-9.6c0.2-7.5,0-16.3,0-16.3s0.9,7.5,0.7,13.6
	c-0.3,7.1,0.4,12.2,0.4,12.9c-0.1,1.8,0.6,2,2.7,0.2c0.7-0.6,1.3,0.6,1.3,0.6l0.1-22.6c0,0,12,17.7,16.7,24.1c0.5,0.7,2,1.3,3,1.1
	c0.7-0.1-1.6-2.6-2.6-4c-1.8-2.6-3.3-6-3.1-5.4c0.2,0.9,8.4,11.5,8.4,10.8c-0.1-1,0.7-1.6-0.2-2.7c-1.6-1.8-2.8-3.5-1.8-2.3
	c2.6,2.9-0.4-1.5,0.1-1.5c1.1,0-0.2-1-1.5-2.4c-1.2-1.2-3.2-3.7-2.7-3.8c0.6-0.1,5.2,7.3,5.9,5.1c0.2-0.8-2.8-4.7-4-6.8
	c-0.6-1.1,1.3,2,1.9,1.3c0.1-0.1,0.6-0.1,0-1.1C86.1,69.3,77.8,58,77.8,58S89,58.3,88.7,42.7C88.5,38,82.5,31.5,78,30.3
	c-10.4-2.7-27.1,1.4-26.3,1.5c0.1,0-0.7,1-0.2,1.7c0.3,0.4,2-1,2.3-0.5c0.2,0.4-4.4,0.6-0.6,2.1c0.1,0,2-0.8,3.3-1.1
	c3.1-0.8,10.4-1.5,0.6,0.6c-0.7,0.2-2.5,0.6-3.5,1.3c-0.3,0.2-0.6,0.7,0.1,1.2c0.1,0.1,1.6-0.9,2.7-1.2c2.1-0.6,10.7-1.8,1.5,0.3
	c-0.5,0.1-4.4,0.9-3.5,1.9c0.2,0.3,1-0.2,1.5,0.2c0.6,0.4,3.6-0.8,3.7-0.5c0.1,0.3-3.3,1-4.1,1.3c-0.8,0.4,0.1,0.7,0.2,0.7
	c3.5,0.8,10.9-1.5,14.9-1.2c2.5,0.2,8.5,1.8,8.6,5.8c0.4,11.9-10.1,8.2-10.4,8.8c-0.2,0.5,0.1-15.8-0.3-15.1
	C67.9,38.6,57.5,39.4,57.5,39.4z"/>
<path d="M86.7,30.7c0,0-1.9,0.8,3.6,0.3c0.3,0-0.2,0.3-0.2,0.3l-5.4,0.2l0.7,1.6L96.6,33c0,0,0.5,0.6-8.3,0.3
	c-1.6,0-0.3,0.4-0.3,0.4s-1.4,1.3-0.4,1.3c1,0,1.3,0,1.3,0s1.3-0.1,1.3,0.4c0,0.7-2-0.6-0.8,1.1l4.6,0c0,0-2.5,1.1-5,0.5
	c-0.4-0.1-0.2,1.5,0.1,1.4s9.5-0.3,9.5-0.3l0.1,40.6c0,0,0,0.6,1-0.2c0.9-0.7,0.5-0.4,0.7-3.4c0.1-2.7-0.6-6.4,0.3-4.8l0.1-11.1
	l0.2,15.8c0,0,0.4,5.8,0.3,7.8c0,0.5,1.6,1.6,1.9,1.3c0.3-0.4,0.3-11.8,0.3-11.8l0.5,6.4v6.1c0,0,0.2,1.8,0.7,1.9
	c1,0.2,1.3-0.9,1.3-0.9l-0.2-9.4c0,0-0.3-8-0.2-11c0-4.4-0.3-17.3-0.3-17.3l1.1,21.2l0.2,12.3c0,0,0.4,0.6,0.8,1.7
	c0.2,0.6,1.8,1.2,1.8,1.2l1.2-1.1l-0.4-45.2l12.9,0.1c0,0,0.2-7.9,0-7.7C122.5,30.8,86.7,30.7,86.7,30.7z"/>
<path class="st0" d="M126,6.1c-4.2-1-2.5,16.6-2.5,16.6v60.6c-0.4,0.2-0.3,2.2,2.2,1.3c2.4-0.8,1.7-2.7,1.7-2.7l-0.1-6l0.6,3.4
	l1,2.3c0,0-0.4,1.4,1.4,0.6c0.2-0.1,1-0.8,1.1-1.3c0.3-0.8-0.6-2.8-0.6-2.8l0.8-1l-0.7-4.1l0.6-1.6l0.5,3.5l1.1,5.6
	c0,0,4.8,1.5,4.4,0c-1-4.7-1.6-35.4-1.6-35.4s18.3,28,22.7,35.6c2.1,3.7,2.7,4.8,2.7,4.8s5.9,3.8,5.3,3c-1.8-2.8-2-4.4-2-4.4
	c0,0,1.1,0.7,2.8-0.1l-1.5-3l-4-6.8l-0.5-2.4c0,0-4-5.6-2.4-4.1c1.9,1.8,3.3,5.7,4.7,6.6c0.6,0.4-0.2-1.6-0.5-3c-0.5-2-1.2-3-1.2-3
	l-0.3-0.8c0,0,2.3,1.9,1.6,0.3c-0.4-1-1.7-3.1-1.7-3.1l-1.6-2.9l-1.3-1.9l2.5,2.3c0,0,0.5-0.5-0.1-1.4c-0.8-1.4-16.7-24.6-16.7-24.6
	l25-32.1l1.1-2.4l-0.7-2c0,0-2.7,3.9-5,6.3c-0.7,0.8-1.6,0.8-2,1.2C162.1,8,163,4.2,163,4.2l-4.4,5.6l-2.5,1.5c0,0,1.2-1.5,1.4-3.5
	c0.3-2.4-6.3,4.1-6.3,4.1s1.5-3.2,0.9-3.1c-1.1,0.1-3.6,4.1-3.6,4.1l-7,10.5l-5.2,6.7c0,0,0.4-15.8-0.6-22.9
	c-0.1-0.7-2.4-1.2-3.1-1.3C130.8,5.6,126,6.1,126,6.1z"/>
<path class="st0" d="M166.7,33.3c-0.2,0.8,0.3,47.3,0.3,47.3l1,1.7l1.7,2.2l1.2-3.7c0,0,0,3.4,0.8,3.7c0.5,0.2,1.8-1.7,1.8-1.7
	l-0.5-6.8c0,0,0.8,2.5,0.8,0.2c0-0.8,0.3-9.3,0.3-9.3l0.3,7.5l0.3,9.3l1.3,0.5v-8.3c0,0,0.6,0.4,0.6,0.6c-0.1,4,0.5,7.5,0.5,7.5
	l1.7-0.2l0.7-51.5l-2-1.4l-3.9-0.3c0,0-4,0.4-4.7,0.7C168.3,31.5,166.7,33.3,166.7,33.3z"/>
<path class="st0" d="M271.3,34c-0.5,0.5-0.1,9.3-0.4,16c-0.3,7-0.9,22.5-1,25.1c0,0.2-0.3,8,0,8s1,1.1,1,1.1l0.9-0.4
	c0,0,0.1,0.9,0.4,0.9c0.7,0,0.8-1.2,0.8-1.2s0.9,1.3,1.6,0.6c0.7-0.7,1.3-0.5,1.3-0.5l-0.5-6.4l0.7-6.2l0.6,11.9
	c0,0-0.8,1.2,1.7,1.2c0.7,0,0.6-2.7,0.6-2.7l0.4,2.7l0.7-0.1c0,0,0.5-28.7,0.4-28.3s4.1,11.7,4.1,11.7L289,83l1.3-0.6
	c0,0,0.3-1.9,0.3-2.1c0-0.2,1,3.2,1,3.2l1.2-1.2l-0.5,2.2l1.1-0.7v1.2l2.2-0.5c0,0,2.9-0.9,6.6-0.2c1.1,0.2,0.6-2.5,0.6-2.5
	l1.3-45.9c0,0,0.5-1.9-0.4-1.8l-0.7-3.2l-1.1,3.1c0,0,0.5-1.9,0-2.8c-0.5-0.8-1.6,0.2-1.5,0.5c0.3,1.1,0,1.6,0,1.6l-1-2.3
	c0,0-0.9,1.6-0.9,3.6c0,1.2-0.9-4.1-0.9-4.1l-1.4,1.5l-1.4,3.2c0,0-0.2-1.9-0.8-2.2c-0.3-0.1-1.3,0.2-1.3,0.6
	c-0.2,1,0.3,5.3,0.3,5.3v12.8L293.1,64l-6-21.6c0,0-0.9-8.3-2.4-10.2c-1.1-1.4-2.4-0.1-2.4-0.1l-1.1-0.1c0,0-1.4-0.7-1.6-0.8
	c-1.7-0.2-4.9,0.7-4.9,0.7l-0.8,0.9C273.9,32.7,272.3,32.9,271.3,34z"/>
<path class="st0" d="M348,58.9c0,3.8,0.4,7.4,0.4,10.5c0,3.5,0.2,1.5,0.1,2.1c-0.1,1,0.1,2.5,0,3.4c0,0.6-1.1,1.4-1.6,2.5
	c-0.2,0.4-0.8-1.1-0.9-2.7c-0.2-9.8-0.8-0.1-0.8-0.1c0.5,2,0.1,4.2,0,4.9c-0.2,1.9-1.2,0.4-1.2-0.5c-0.1-2.5-0.6-3.8-0.5,2.3
	c0,0.7-0.6,1.4-2,1.7c-0.4,0.1,0.2-4.9-0.4-3.2c-0.4,1.1,0.3,4.1-0.5,4.9c-2,2.3-2-1.4-2.2-1.3c-1.8,0.8-4,1.2-6.5,1.2
	c-12.5,0-22.7-12.3-22.7-27.5s10.2-26.4,22.7-27.5c2.9-0.3,16.8,1.7,15.6,7.4c-0.3,1.3-0.4,4.1-1.2,4.6c-8.8,6.3-17-10.6-24.3,9.6
	c-0.3,0.9-3.3,13.3,2.6,19c1.3,1.3,5.9,8,13.2,1.4c2-1.8,1.3-12.7,1.3-12.7c-0.8-0.5-9.5,0.4-9.8-0.4c-0.4-1.2-1.9-1.5,2.1-1.2
	c1,0.1-0.3-1.1,0.9-1.2c0.4-0.1-5.6,1-3.4-0.2c1.3-0.8-0.3-1.6,1.6-1.3c1.6,0.2-0.2-1.1,0.8-1.1c0.3,0-2.9,0.4-3-0.2
	c-0.5-2.2,0.1-2.1,1.2-2.2c1.6-0.1,9.6-0.1,10.5-0.1c3.9,0.2,13.8,0.3,14.6,0.1c0,0,4.6,1.9-4.9,1.2c-0.3,0-0.3,0.6,0,0.8
	c0.3,0.4,8.6-0.3,8.4,0.2c-0.9,2.3-1.9,3.9-2.3,4.7C355.4,59.1,348,58.4,348,58.9z"/>
<path d="M402.5,38.3c-0.6,0.2,0.4,39.3,0.4,39.3s-0.3,4.1,0,4.6c0.5,0.7,0.8-2.3,0.8-2.3s0.2,4.1,0.5,4.5c1.2,1.5,1.5,0.1,1.5,0.1
	s1.1-0.8,0.7-3.4c-0.5-2.8,0-24.5,0-24.5s0.7,7.6,0.7,8.3c0,0.7-0.2,11.5-0.2,11.5s0.1,4.9,1,6.3c1.5,2.3,2-0.9,2-0.9l0.6-1.4
	c0,0,0.5,1.7-0.2,4c-0.1,0.4,2.1-1,2.1-1l0.1-5.3l0.4,1.9l0.2,3.1l1.4,0.5l-0.2-25.6l1.5,0l1.7-0.2c0,0,0.7-0.4,1.5-0.7
	c0.5-0.2,2.5-1.2,2.5-1.2s-3.1,2.6-5.1,3.4c-0.7,0.3,2.5,0.7,4.5,0.1c3.1-0.9,4.1-3.5,4.1-2.6c0,0.9-2.4,1.8-1.8,2.2
	c0.7,0.4,3.4-2,4.7-3c3.6-2.7,14.9-22.7-15.1-26.3c-4-0.5-15.6,0.9-17.1,4.1c-0.3,0.6,0.5,0.8,0.5,0.8l2.1,0.3c0,0,2.1-0.9,2.7-1.3
	c5.2-2.8,14.2-1.5,14.2-1.5s-8.1-0.1-12.2,1.4c-1.9,0.7-4.2,1.6-4.7,2c-1.1,0.7-1.2,1.8-0.5,2.1c0.4,0.2,2.9-1.4,5-2.3
	c3.9-1.7,6.3-0.7,6.3-0.7s-6.3,0.7-9.5,3.3c-1.5,1.3-1.1,2-0.8,1.7c1.9-1.9,6.4-2.3,6.4-2.3l6.6,0.2c0,0,12.5-0.2,11.6,8.6
	c-0.7,7.1-9,6.6-10.1,6.7l-0.2-16.6C413.5,36.4,404.6,37.6,402.5,38.3z"/>
<path d="M445,30.7c-0.7,0.2-11.7,34-11.6,35.3c0,0.6,0.9-0.5,0,0c-0.9,0.6-2.7-0.5-2.9,0.4c-0.1,0.4-0.5,0.9-0.5,0.9l0.9,1.1
	c0,0-1.9-0.4-1.7,0.7c0,0,2.8-0.1,2,0.3c-0.8,0.4-2.8,0-2.9,0.3c-0.1,0.2,0,0.8,0.4,1.1c0.4,0.3,1.4,0.1,2.5,0.3
	c0.4,0.1,1-0.1,0.8,0.4c-0.2,0.7-4.7,10-4.4,11.3c0.9,3.6,2.4,0,2.4,0l0.7,2.1l1.5-1.5c0,0,0.5,0.4,0.6,0.3
	c0.4-2.8,5.9-16.4,2.8-6.9c0,0-2.1,5.6-1.2,7c0.3,0.5,2,0.7,2,0.7s0.6-2.4,0.9-3.4c0.4-1.5,1.1-6,1.1-5.6c0,0.7,0.1,8.1,0.1,8.1
	s2.9,1.7,2.3,0.1c-0.2-0.6,1.7-11.4,1.7-11.4l10.4,0.2l4,12.7c0,0,2.1,0,2.7-1.4c0.5-1.4-0.9-6-0.9-6l2.9,6.4c0,0,2.7,2.6,1.3-5.6
	c-0.1-0.7,1.5,5.5,1.5,5.5s1.5,1.8,1.7-0.9c0.1-1.7,1.4,0.1,1.4,0.1l-4.4-11.9c0,0,5.4-0.1,4.4-0.7c-0.6-0.3-0.5-1.2-1.2-1.1
	c-3.5,0.6-3-0.2-3-0.2s4.2,0.1,2.6-0.9c-0.4-0.3-1-0.1-1-0.1l-1.7,0.2l2.3-0.8c0,0-4.2,0.4-3.5,0.2c3.4-1,3.4-1,3.4-1l-1.4-1
	c-0.1,0-1.4,0.3-2.7,0.1l-9.8-0.2l-8.5,0c0,0,4.2-15,4.2-14.1c0,0.9,4,14.1,4,14.1l10.3,0.5l-1.8-4.3c0,0-8.1-25.2-11.1-31.6
	C448,29.7,445,30.7,445,30.7z"/>
<path d="M496.2,31.3c-0.9,0-1.1,3-1.1,3l0.5,18.1h-3c0,0-2.1,0-2.1,1.4c0,0.3,3.8-0.7,3.5,0.2c-0.2,0.7-3.1,0-2.4,1.1
	c0.3,0.4,3,0,3,0c-4.4,1.9-0.4,1.7,0.5,1.7l-1.9,0.5l0.2,0.6l1.8,0.2c0,0,0.4,20.8-0.3,25.5c-0.1,0.8,2.2,0.6,2.2,0.6
	s0.4-7.4,0.4-6.9s0.3,7.2,0.3,7.2c0.4,0.3,1.7-0.9,1.7-0.9l0-3.5l0.4-4l0.2,4.9l-0.1,2.9c0,0,1.7,0.7,1.9,0.2c0.2-0.5,0-2.9,0-2.9
	c0,0,0,0,0-0.1l0.3-3.6c-0.4-0.3,0.4,2.1,0.2,4.8c0,0.9,2.2,1.1,2.2,1.1l-0.4-5.4l0.4-0.6l0.3,1.4c0,0,0.6,2.5,0.5,3.3
	c-0.2,1.8,1.1,2,1.1,2s-0.4-25.9,0.1-26c1.3-0.2,8.3-0.1,8.3-0.1s0,20.5,0,24.7c0,1.3,1.7,1,1.7,1s1.7,0.2,1.4-1.9
	c0-0.3,0.2-0.8,0.2-0.8l0.4,0.4l0.2,2.3c0,0,1.1,1,1.5,0.7c0.2-0.2,1-2.9,1-2.9s0.6,4.3,1.6,2.9c0.6-0.8,0.3-2.7,0.3-3.8
	c-0.1-1.9,0.2-3.9,0.2-3.9l0.3,7.1l2,0.6c0,0,1.2-0.1,1.3-1.2c0.3-3.3-0.3-25.8-0.3-25.8h1.6c0,0-0.4-0.6,1.4-0.6
	c2,0,2.2-1.5,2.2-1.5l-3.5-0.1l0.4-0.5c0,0,0.9,0.2,1.3,0.1c1.5-0.4,1.9-0.3,1.9-0.3l0.4-1.8c0,0-1.3,0.7-1.7,0.7
	c-1.1,0-3.5,0.6-3.5,0.6l0.5-0.5l3.1-0.5l0.2-1.1l-4,0.1c0,0-0.4-19.5-0.3-21.2c0-0.8-3-0.6-3-0.6l-1.6,0.1l-3.2-0.6
	c0,0-3.4-0.4-4,0.1c-0.7,0.6-0.2,2.7-0.2,4c-0.2,4.7,0,18,0,18l-7.4-0.1c0,0-0.1-12.5,0.1-17.2c0.1-3.4-1.9-3-2.7-3.4
	C502.7,30.2,497.6,31.3,496.2,31.3z"/>
<path d="M530.6,30.3c-1.5,1.5,5.4,13.8,5.4,13.8l7,15.3c0,0,0.3,18,0,22.3c-0.4,6.1,0.7,0.3,0.8-0.4c0,0-0.4,2.7,0.1,2.8
	c0.2,0.1,0.4-0.8,0.4-0.8l1.3,0.6c0,0-0.3-3.1,0-5.9c0.2-1.3,0.5-0.1,0.5-0.1s0.1,4.1,0.3,4.6c0.3,1.1,1.1-1.9,1.1-1.9
	s0.1-0.2,0.2,1c0.2,3.1,0.9,3,1.4,0.3c0.1-0.5,0.3,3.1,0.5,2.4c0,0,0.8,0.1,0.8-0.7c0.1-1.2,0.3-3.2,0.3-3.2l-0.4-9
	c0,0,0.7-7.1,0-9.6c-0.2-0.9,0.7,0.7,0.7,0.7l-0.2,16.6c0,0,0.7,2,0.8,2.3c0.3,1.4,1.6,1.2,1.6,1.2l0.3-12.8l0.3,0.7
	c0,0,0,5.5,0,6.6c0,1.1,0.9-1.5,1.1-0.1c0,0.3-0.4,7.3-0.4,7.3s1.7,0.4,1.7-0.9c0-1.2-0.9-22.5,0-24.3c0.5-1,10.1-19.7,13-24.6
	c0.7-1.1-1.5,0.7-0.7-0.6c0.6-1.1,0.7-2.9,0.7-2.9l-1.4,0.4c0.1,0.2-1.6,3.8-3.1,5.4c-0.3,0.3,0.1-3.4-1.1,0.7
	c-0.5,1.7-1.8,3.6-2.7,5.6c-0.7,1.6-3.4,7.2-3.4,7.2s2.7-9,4.3-11.6l1.9-4.5c0,0,1-3,0.3-3.3c-1.1-0.7-6.6-0.9-6.6-0.9
	s-1.8,0.7-2.3,2.3c-0.9,3-3.6,11.2-3.6,11.2l-1.3,5l-0.7,1.2c-0.1,0-0.2,6.8-8.2-18.6c-0.2-0.5-2.9-0.5-2.9-0.5s1.7,4.1,1.4,4.1
	c-0.3,0-0.9-1.4-0.9-1.4l-1.2-3.4c0,0-1.2,0-1.5,0c-1.5,0-1.2,0.8-1.2,0.8l1.1,4.1c0,0,0.2,1-0.1,0.8c-1-0.5-1.7-4.1-1.7-4.1
	l-0.7-0.2C533.3,31.4,531.3,29.7,530.6,30.3z"/>
<path d="M373.4,4c-1.8-0.2-9.4,25.4-15.7,47.5c-0.1,0.2-5.3-0.2-4,0.7c3.5,2.2,3.7,0.1,3.1,1.7c0,0-3.2-0.1-3.3,0.4
	c-0.3,1,1.9,1,1.6,1.4c-0.5,0.5-3.2-0.7-4.2,0.6c-1,1.2,5.4,0.6,3.9,0.6c-4.4,0.2-0.3,0.4-3.4,1.2c-0.4,0.1,4.4-0.2,3.9,1.3
	c-3.3,10.9-5.9,20.6-6.8,22.7c-0.7,1.7,0.4,1.8,0.4,1.8s1.9-4,1.2-1.3c-0.9,3.5-0.6,3.4,0,3.3c2.8-0.4,2.9-3.8,3.3-4.1
	c1.3-0.7-0.8,2.7,0.3,2.4c1-0.3,1.5-2.7,2.2-4.5c0.2-0.6,0.5-1.5,1.1-2.4c1.7-2.3,4.1-18.3,5-18c0.8,0.3-6.3,25.1-6.3,25.1
	c2.8,4.5,4.4-4.5,4.1-2.7c-0.8,4.4,1.7,3,1.7,3l6.3-25.6l11.6,0l-1.9-7.9l-7.8,0.2l4-16.2l3.8,16L378,53l1.1,4.5l0.3,1.3l5.9,25.3
	c0,0,3.6,2.6,2.9,0.1c-2.9-10.4-6.3-25-1.2-6.4c0.4,1.3,1.5,2.1,1.8,3.3c0.6,2.4,2.1,2.6,1.8,2c-1.1-2.4-1.3-7.2-1.3-7.2
	s4.3,11.2,3.1,5.6c-0.7-3.2-0.5-4.9-1.4-6.9c-1.7-4.2-2.1-8.3-2.5-10.6c-0.8-4.4,0.8-0.8,1.4,4.1c0.3,2.6,3.9,15.7,4.2,16.5
	c0.4,1.1,1.4,1.8,1.4,1.8s0.9-0.4,1.4,0.2c1,1.2,1.8,2.7,3.1,2.7c0.3,0-3.6-13.7-8.4-30.5c-0.1-0.4,4.4,0.1,4.2-0.3
	c-0.6-1.5-0.1-2.2-1.9-2c-1.1,0.1-0.6,0.1-0.9-0.5c-0.1-0.3,0.6,0,0.4-0.9c-0.2-0.7-1.1,0-1.4-0.5c-0.2-0.3,1.2,0.2,1.1-0.7
	c0-0.2-1.4,0,0-0.9c0.5-0.4-1,0.3-1.2,0c-0.1-0.3,1.6-0.4,1.5-0.5c-1.1-0.4-3.5,0.4-3.1,0.1c0.6-0.5,2.8-0.2,2.5-1
	c-0.3-0.9-3.3-0.4-3.4-0.6C382.8,28.6,375.1,4.2,373.4,4z"/>
<path class="st0" d="M247.7,33.3c-0.2,0.8,0.3,47.3,0.3,47.3l1,1.7l1.7,2.2l1.1-3.7c0,0-0.1,3.4,0.7,3.7c0.5,0.2,1.9-1.7,1.9-1.7
	l-0.5-6.8c0,0,0.8,2.5,0.8,0.2c0-0.8,0.3-9.3,0.3-9.3l0.3,7.5l0.3,9.3l1.3,0.5v-8.3c0,0,0.6,0.4,0.6,0.6c-0.1,4,0.5,7.7,0.5,7.7
	l2.1,0.1l0.3-52.1l-2-1.4l-3.9-0.3c0,0-4,0.4-4.7,0.7C249.3,31.5,247.7,33.3,247.7,33.3z"/>
<path class="st0" d="M221.6,30.5c0,0-2.4,0-3.2,1.4c-0.2,0.4,0,3.3,0,3.3l0.2,47.5l1.9-0.3L224,80l4.4-4l-3.3,4.2l-5.5,4.1l2,0.4
	L227,83c0,0,6.2-4,10.3-5.8c1.9-0.8,3.5-2.7,5.9-3.2c1.4-0.3,2.6-2.6,2.6-2.6s-1.6,0.1-2.7-0.1c-0.9-0.1-4.3,1.1-4.3,1.1l-3.4,2.4
	l3.4-3.6l4.2-1.7l2.6-0.1l1.6-2.3l-2.3,0.2l-3.3,0.3c0,0-2.1,0.5-2.9,0.9c-0.7,0.3-2.6,1.3-2.6,1.3l-2.8,2.3L236,69l3.8-1.9
	c0,0,4.4,0.1,4.2-1l-5.4,0.1l-3.6,1.5l-4.3,2.6c0,0-0.5-8.6-0.4-17.2c0.2-9.1,0.7-20.6,0.6-20.6c-0.2,0.1-1.1-1.4-1.7-1.6
	C227.6,30.5,221.6,30.5,221.6,30.5z"/>
<path d="M457.9,30.2c0,0-2.5,1.5,3,1c0.3,0-0.2,0.3-0.2,0.3l-5.4,0.2l0.7,1.6l11.2-0.1c0,0,0.5,0.6-8.3,0.3c-1.6,0-0.3,0.4-0.3,0.4
	s-1.4,1.3-0.4,1.3c1,0,1.3,0,1.3,0s1.3-0.1,1.3,0.4c0,0.7-2-0.6-0.8,1.1l4.6,0c0,0-2.5,1.1-5,0.5c-0.4-0.1-0.2,1.5,0.1,1.4
	c0.3-0.1,9.5-0.3,9.5-0.3l0.1,40.6c0,0,0,0.6,1-0.2c0.9-0.7,0.5-0.4,0.7-3.4c0.1-2.7-0.6-6.4,0.3-4.8l0.1-11.1l0.2,15.8
	c0,0,0.4,5.8,0.3,7.8c0,0.5,1.6,1.6,1.9,1.3c0.3-0.4,0.3-11.8,0.3-11.8l0.5,6.4v6.1c0,0,0.2,1.8,0.7,1.9c1,0.2,1.3-0.9,1.3-0.9
	l-0.2-9.4c0,0-0.3-8-0.2-11c0-4.4-0.3-17.3-0.3-17.3l1.1,21.2l0.2,12.3c0,0,0.4,0.6,0.8,1.7c0.2,0.6,1.8,1.2,1.8,1.2l1.2-1.1
	c0,0-0.2-44.6,0.6-44.8c2.3-0.6,11.9-0.3,11.9-0.3s0-0.6,0-1.5c0-0.2-1.6-0.2-1.3-0.5c1.1-1.2,2.7-1.4,0.5-1.7
	c-0.5-0.1-2.1,0.4-2.1-0.1c0-1.4,4.3-1,3-1.2c-6.1-0.9-0.1-0.6,0-0.9c0.5-0.8,0-1.8-0.1-1.8c-0.2-0.1-4-0.3-6.2-0.2
	C477,31.1,457.9,30.2,457.9,30.2z"/>
<path class="st0" d="M194.3,30.5c0,0-2.4,0-3.2,1.4c-0.2,0.4,0,3.3,0,3.3l0.2,47.5l1.9-0.3l3.6-2.4l4.4-4l-3.3,4.2l-5.5,4.1l2,0.4
	l5.5-1.8c0,0,6.2-4,10.3-5.8c1.9-0.8,3.5-2.7,5.9-3.2c1.4-0.3,2.6-2.6,2.6-2.6s-1.6,0.1-2.7-0.1c-0.9-0.1-4.3,1.1-4.3,1.1l-3.4,2.4
	l3.4-3.6l4.2-1.7l2.6-0.1l1.6-2.3l-2.3,0.2l-3.3,0.3c0,0-2.1,0.5-2.9,0.9c-0.7,0.3-2.6,1.3-2.6,1.3l-2.8,2.3l2.8-3.2l3.8-1.9
	c0,0,4.4,0.1,4.2-1l-5.4,0.1l-3.6,1.5l-4.3,2.6c0,0-0.5-8.6-0.4-17.2c0.2-9.1,0.7-20.6,0.6-20.6c-0.2,0.1-1.1-1.4-1.7-1.6
	C200.3,30.5,194.3,30.5,194.3,30.5z"/>
<linearGradient id="SVGID_1_" gradientUnits="userSpaceOnUse" x1="359.7293" y1="75.6493" x2="361.2903" y2="75.6493" gradientTransform="matrix(1.061 0.3092 0.2838 -0.9739 -42.5927 25.7468)">
	<stop  offset="0" style="stop-color:#D73515"/>
	<stop  offset="0.2596" style="stop-color:#F15A24"/>
	<stop  offset="0.4046" style="stop-color:#EC5425"/>
	<stop  offset="0.6145" style="stop-color:#C1272D"/>
	<stop  offset="0.9287" style="stop-color:#000000"/>
</linearGradient>
<path class="st1" d="M360.3,69.9c-1.2,0.5,1.2-9.7,1.4-10.6c0,0,0-0.1,0-0.1l0.7-2C362.5,57.2,360.9,69.7,360.3,69.9z"/>
<linearGradient id="SVGID_2_" gradientUnits="userSpaceOnUse" x1="342.6595" y1="54.9828" x2="373.8872" y2="54.9828">
	<stop  offset="0" style="stop-color:#D73515"/>
	<stop  offset="0.226" style="stop-color:#FF0000"/>
	<stop  offset="0.4046" style="stop-color:#EC5425"/>
	<stop  offset="0.6145" style="stop-color:#C1272D"/>
	<stop  offset="0.9287" style="stop-color:#000000"/>
</linearGradient>
<path class="st2" d="M342.8,52.3c-1.6-1.6,12.3-0.3,16.2-1.1c4.6-1,5.7-17.3,1.8,0.2c-0.3,1.3,5.1,0.2,5.1,0.2l6.1,0
	c0,0-2.2,0.7-2.9,0.9c-0.2,0-0.4,0.1-0.6,0.2c-0.2,0.1,5.1,2.7,5.3,0.4c0.1-0.7-5.4,0-7.2,0.2c-2.6,0.3-1.7,1.4-1.7,1.4
	s6.1-0.9,6-0.2c-0.1,1-3.1,1.9-7.4,1.7c-2.1-0.1-1.4,0.8-0.9,0.7c0.3-0.1,10.5,0.6,11.2,0.8c1.2,0.5-6.9,0.8-6.9,0.8
	s-2.6-1.3-4.6,1.6c-1,1.4,0.5-2.5-0.9-1.8c-0.6,0.3-0.8,0.7-1.1,1.3c-0.4,0.8-0.7,2.1-1.2,4.4c-0.7,3.2-1.1,2.7-1.1,2.7s0.4-2,1-4.6
	c0.2-1,0.3-3.5,0.3-3.5s-0.7,0.2-0.9,0.7c-0.3,0.5-1.2,5.5-1.2,0.3c0-1.7-1.3,3.9-1.5,4.5c-0.1,0.4,0.6-4.7,0-4.8
	c-2.8-0.7-8.3-0.2-10.2,0.3c-0.5,0.1,0.6-2.1,2.1-1.9c2.4,0.3,2.8-2,0.7-2c-2.9,0-3.7,0.3-3.9-0.2c-0.4-0.8,3.5,0.2,5.6-0.4
	c0.3-0.1,0.5-0.2,0.7-0.4c0.4-0.3-3.6,0.1-4.2-0.2c-0.4-0.2,2.5-1.2,2.5-1.2S343.6,53.1,342.8,52.3z"/>
<linearGradient id="SVGID_3_" gradientUnits="userSpaceOnUse" x1="357.5863" y1="47.4852" x2="365.9302" y2="47.4852" gradientTransform="matrix(0.9922 0.1249 -0.1249 0.9922 8.494 -45.1402)">
	<stop  offset="4.745371e-02" style="stop-color:#F15A24"/>
	<stop  offset="0.4046" style="stop-color:#EC5425"/>
	<stop  offset="0.7581" style="stop-color:#C1272D"/>
	<stop  offset="0.9465" style="stop-color:#000000"/>
</linearGradient>
<path class="st3" d="M359.5,53.7c5.1-0.4,6.3-16.4,6.9-12.5c0.2,1.2-0.9,4.8-0.9,4.8l-0.5,4c-0.1,0.9-0.8,1.7-1.8,1.9
	C359.8,52.7,352.3,54.2,359.5,53.7z"/>
<linearGradient id="SVGID_4_" gradientUnits="userSpaceOnUse" x1="359.6646" y1="47.9547" x2="367.5721" y2="47.9547" gradientTransform="matrix(0.693 0.2912 -0.4428 1.0539 134.1372 -107.2578)">
	<stop  offset="0" style="stop-color:#D73515"/>
	<stop  offset="0.2596" style="stop-color:#F15A24"/>
	<stop  offset="0.4046" style="stop-color:#EC5425"/>
	<stop  offset="0.7581" style="stop-color:#C1272D"/>
	<stop  offset="0.9465" style="stop-color:#000000"/>
</linearGradient>
<path class="st4" d="M363.2,53.4c0.6-1.9,1.8-2.7,2.6-3.2c3.5-2.1,2.3-6.8,4.4-7.5c0.6-0.2-1.2,4.2-1.2,4.2s-1.4,3.8-2.7,4.7
	c-2.5,1.7-0.3,2.4-3.7,3.5c-4.4,1.4-4.1-0.3-2.3-0.1C362.4,55.3,363.2,53.6,363.2,53.4z"/>
<linearGradient id="SVGID_5_" gradientUnits="userSpaceOnUse" x1="355.8419" y1="58.1242" x2="360.7917" y2="58.1242" gradientTransform="matrix(0.6869 0.6604 -0.693 0.7209 152.7014 -220.91)">
	<stop  offset="0" style="stop-color:#F15A24"/>
	<stop  offset="4.112930e-03" style="stop-color:#FF6715"/>
	<stop  offset="0.2903" style="stop-color:#EC5425"/>
	<stop  offset="1" style="stop-color:#C1272D"/>
</linearGradient>
<path class="st5" d="M360.7,58.8c-0.5-0.4-0.3-1.1-1.2-1.1c-2.1,0.1-4.9-0.9-2.6-1.2C358.8,56.2,360.8,57.6,360.7,58.8"/>
<g>
	<g>
		<linearGradient id="SVGID_6_" gradientUnits="userSpaceOnUse" x1="359.0031" y1="56.5532" x2="374.7969" y2="56.5532">
			<stop  offset="0" style="stop-color:#D73515"/>
			<stop  offset="0.1389" style="stop-color:#C1272D"/>
			<stop  offset="0.4596" style="stop-color:#F15A24"/>
			<stop  offset="0.7105" style="stop-color:#EC5425"/>
			<stop  offset="0.9773" style="stop-color:#000000"/>
		</linearGradient>
		<path class="st6" d="M359.1,56.4c1.3-0.4,2.5,0.3,3.7,0.8c1.1,0.5,2.1,0.8,3.3,0.7c2.3-0.4,6.6-4,8.3-0.6c0.2,0.4,0.8,0,0.6-0.3
			c-0.5-1.1-1.7-1.7-2.9-1.7c-1.7,0-3.2,1.1-4.7,1.7c-0.9,0.3-1.8,0.6-2.7,0.4c-0.7-0.2-1.4-0.5-2.1-0.8c-1.2-0.5-2.4-1-3.6-0.6
			C358.5,55.9,358.7,56.5,359.1,56.4L359.1,56.4z"/>
	</g>
</g>
<g>
	<g>
		<linearGradient id="SVGID_7_" gradientUnits="userSpaceOnUse" x1="354.5117" y1="65.115" x2="357.7063" y2="65.115">
			<stop  offset="2.273479e-02" style="stop-color:#000000"/>
			<stop  offset="0.2895" style="stop-color:#EC5425"/>
			<stop  offset="0.5404" style="stop-color:#F15A24"/>
			<stop  offset="0.8611" style="stop-color:#C1272D"/>
			<stop  offset="1" style="stop-color:#D73515"/>
		</linearGradient>
		<path class="st7" d="M356.8,59.6c1.2,2-0.1,4.2-1.1,5.9c-0.9,1.7-1.8,3.5-1.2,5.5c0.1,0.4,0.8,0.2,0.7-0.2
			c-0.7-2.3,0.9-4.3,1.8-6.2c0.9-1.7,1.4-3.7,0.4-5.4C357.2,58.8,356.6,59.2,356.8,59.6L356.8,59.6z"/>
	</g>
</g>
<g>
	<g>
		<path class="st0" d="M346.3,69.9c-0.5,3-0.6,6-0.1,9c0,0.3,0.6,0.4,0.7,0.1c0.4-1,0.7-2,0.6-3c0-0.5-0.8-0.5-0.8,0
			c0,0.9-0.1,1.8-0.5,2.7c0.2,0,0.5,0.1,0.7,0.1c-0.4-2.8-0.4-5.8,0.1-8.6C347.1,69.6,346.3,69.4,346.3,69.9L346.3,69.9z"/>
	</g>
</g>
<g>
	<g>
		<path class="st0" d="M344,79c0,0.9,0,1.8,0,2.7c0,0.2,0.2,0.4,0.4,0.4c0.2,0,0.4-0.2,0.4-0.4c0-0.9,0-1.8,0-2.7
			c0-0.2-0.2-0.4-0.4-0.4C344.1,78.6,344,78.8,344,79L344,79z"/>
	</g>
</g>
<g>
	<g>
		<path class="st0" d="M330.3,55c-0.5-0.1-1-0.2-1.4-0.2c-0.1,0-0.2,0-0.3,0c-0.1,0-0.2,0.1-0.2,0.2c0,0.2,0.1,0.4,0.3,0.5
			c0.5,0.1,1,0.2,1.4,0.2c0.1,0,0.2,0,0.3,0c0.1,0,0.2-0.1,0.2-0.2C330.6,55.2,330.5,55,330.3,55L330.3,55z"/>
	</g>
</g>
<g>
	<g>
		<path class="st0" d="M331.4,54.5c-0.6,0.1-1.1,0.1-1.7,0.2c-0.2,0-0.4,0.2-0.4,0.4c0,0.2,0.2,0.4,0.4,0.4c0.8,0,1.7-0.2,2.5-0.5
			c0.2-0.1,0.3-0.2,0.3-0.4c0-0.2-0.2-0.3-0.4-0.3c-1.2,0.1-2.3,0.3-3.5,0.4c-0.2,0-0.4,0.2-0.4,0.4c0,0.2,0.2,0.4,0.4,0.4
			c1.2-0.1,2.3-0.3,3.5-0.4c0-0.2-0.1-0.5-0.1-0.7c-0.7,0.3-1.5,0.5-2.3,0.5c0,0.2,0,0.5,0,0.8c0.6-0.1,1.1-0.1,1.7-0.2
			c0.2,0,0.4-0.2,0.4-0.4C331.8,54.7,331.6,54.4,331.4,54.5L331.4,54.5z"/>
	</g>
</g>
<g>
	<g>
		<path class="st0" d="M296.4,34c0.1-0.8,0.1-1.6,0.2-2.4c0-0.4-0.7-0.5-0.7-0.1c-0.3,1.5-0.5,3.1-0.8,4.6c0,0.2,0.1,0.4,0.3,0.5
			c0.2,0,0.4-0.1,0.5-0.3c0.3-1.5,0.5-3.1,0.8-4.6c-0.2,0-0.5-0.1-0.7-0.1c-0.1,0.8-0.1,1.6-0.2,2.4C295.6,34.5,296.4,34.5,296.4,34
			L296.4,34z"/>
	</g>
</g>
<g>
	<g>
		<path class="st0" d="M298.6,35.2c0.3-0.4,0.6-0.8,0.9-1.2c-0.2,0-0.5-0.1-0.7-0.1c0.1,0.1,0.1,0.3,0.2,0.4c0,0.1,0.1,0.2,0.2,0.2
			c0.1,0,0.2,0.1,0.3,0c0.1,0,0.2-0.1,0.2-0.2c0-0.1,0.1-0.2,0-0.3c-0.1-0.1-0.1-0.3-0.2-0.4c0-0.1,0-0.1-0.1-0.2
			c-0.1-0.1-0.1-0.1-0.2-0.1c-0.2,0-0.3,0.1-0.4,0.2c-0.3,0.4-0.6,0.8-0.9,1.2c-0.1,0.1-0.1,0.2,0,0.3c0,0.1,0.1,0.2,0.2,0.2
			c0.1,0,0.2,0.1,0.3,0C298.4,35.3,298.5,35.3,298.6,35.2L298.6,35.2z"/>
	</g>
</g>
<g>
	<g>
		<path class="st0" d="M298.8,31.4c0,1.5,0,3.1,0.1,4.6c0,0.5,0.8,0.5,0.8,0c0-1.5,0-3.1-0.1-4.6C299.5,31,298.8,31,298.8,31.4
			L298.8,31.4z"/>
	</g>
</g>
<g>
	<g>
		<path class="st0" d="M302.8,31.7c0.7,1.2,0.8,2.6,0.4,3.9c-0.2,0.5,0.6,0.7,0.7,0.2c0.5-1.5,0.3-3.2-0.5-4.5
			C303.2,30.9,302.5,31.3,302.8,31.7L302.8,31.7z"/>
	</g>
</g>
<g>
	<g>
		<path class="st0" d="M302.7,31.9c-0.4,0.2-0.8,0.6-1.1,1c-0.1,0.1-0.1,0.2,0,0.3c0,0.1,0.1,0.2,0.2,0.2c0.3,0.1,0.7,0.1,1-0.1
			c0.1-0.1,0.2-0.2,0.2-0.3c0-0.2-0.1-0.3-0.1-0.4c-0.1-0.1-0.2-0.2-0.3-0.3c-0.2-0.2-0.5-0.2-0.8-0.1c-0.2,0.1-0.3,0.2-0.3,0.4
			c0,0.1,0,0.1,0.1,0.2c0,0.1,0.1,0.2,0.2,0.2c0.1,0,0.3,0,0.4,0.1c0.1,0,0.2,0,0.3,0c0.1,0,0.2-0.1,0.2-0.2c0-0.1,0-0.2,0-0.3
			c0-0.1-0.1-0.2-0.2-0.2c-0.1,0-0.3,0-0.4-0.1c0,0.2,0,0.5,0,0.7c0,0,0.1,0,0.1,0c0,0-0.1,0-0.1,0c0,0,0.1,0,0.1,0c0,0-0.1,0-0.1,0
			c0.1,0,0.1,0,0.2,0c0,0-0.1,0-0.1,0c0.1,0,0.1,0.1,0.2,0.1c0,0-0.1,0-0.1-0.1c0,0,0.1,0.1,0.1,0.1c0,0,0-0.1-0.1-0.1
			c0,0,0.1,0.1,0.1,0.1c0,0,0-0.1,0-0.1c0,0,0,0.1,0,0.1c0,0,0-0.1,0-0.1c0,0,0,0,0,0c0.1-0.1,0.1-0.2,0.2-0.3c0,0,0,0-0.1,0
			c0,0,0.1,0,0.1,0c-0.1,0-0.2,0.1-0.2,0.1c0,0,0.1,0,0.1,0c-0.1,0-0.2,0-0.3,0c0,0,0.1,0,0.1,0c-0.1,0-0.1,0-0.2,0
			c0.1,0.2,0.1,0.4,0.2,0.6c0-0.1,0.1-0.1,0.1-0.2c0,0,0,0.1-0.1,0.1c0.1-0.2,0.3-0.3,0.4-0.4c0,0-0.1,0-0.1,0.1
			c0.1-0.1,0.3-0.2,0.4-0.2c0.1,0,0.1-0.1,0.2-0.2c0-0.1,0-0.2,0-0.3c-0.1-0.1-0.1-0.2-0.2-0.2C302.9,31.8,302.8,31.8,302.7,31.9
			L302.7,31.9z"/>
	</g>
</g>
<g>
	<g>
		<path class="st0" d="M289,82.3c-0.1,0.6,0.1,1.2,0.4,1.7c0.1,0.2,0.4,0.3,0.6,0.1c0.6-0.6,0.7-1.6,0.3-2.4
			c-0.1-0.2-0.3-0.2-0.5-0.1c-0.2,0.1-0.2,0.3-0.1,0.5c0,0,0,0.1,0.1,0.1c0,0,0,0.1,0,0c0,0,0,0,0,0c0,0.1,0,0.2,0.1,0.2
			c0,0,0,0,0,0.1c0,0.1,0,0,0,0c0,0,0,0.1,0,0.1c0,0.1,0,0.2,0,0.2c0,0.1,0,0,0,0c0,0,0,0,0,0.1c0,0,0,0.1,0,0.1c0,0,0,0.1,0,0.1
			c0,0,0,0,0,0.1c0,0,0,0.1,0,0c0-0.1,0,0,0,0c0,0,0,0,0,0.1c0,0,0,0.1-0.1,0.1c0,0,0,0.1-0.1,0.1c0,0,0,0,0,0c0,0,0,0,0,0.1
			c0.2,0,0.4,0.1,0.6,0.1c0-0.1-0.1-0.1-0.1-0.2c0,0,0-0.1,0-0.1c0,0,0,0,0,0c0-0.1-0.1-0.2-0.1-0.4c0,0,0-0.1,0-0.1c0,0,0-0.1,0,0
			c0-0.1,0-0.1,0-0.2c0-0.1,0-0.3,0-0.4c0-0.2-0.2-0.4-0.4-0.4C289.2,82,289,82.1,289,82.3L289,82.3z"/>
	</g>
</g>
<g>
	<g>
		<path class="st0" d="M248.5,80.1c0,0.2,0,0.5,0,0.7c0,0.4,0.6,0.5,0.7,0.1c0.2-0.5,0-1.2-0.4-1.6c-0.2-0.2-0.6-0.1-0.6,0.3
			c0,1.2,0,2.5-0.1,3.7c0.2,0,0.5,0,0.8,0c0-1,0-2,0-3c-0.2,0-0.5,0-0.8,0c0,1,0,2.1,0,3.1c0,0.5,0.7,0.5,0.8,0c0-1.3,0-2.7,0-4
			c0-0.5-0.8-0.5-0.8,0c0.1,1.3,0.1,2.7,0,4c0.2,0,0.5,0,0.8,0c0-1,0-2.1,0-3.1c0-0.5-0.7-0.5-0.8,0c0,1,0,2,0,3
			c0,0.5,0.7,0.5,0.8,0c0-1.2,0-2.5,0.1-3.7c-0.2,0.1-0.4,0.2-0.6,0.3c0.2,0.2,0.3,0.5,0.2,0.8c0.2,0,0.5,0.1,0.7,0.1
			c0-0.2,0-0.5,0-0.7C249.3,79.6,248.5,79.6,248.5,80.1L248.5,80.1z"/>
	</g>
</g>
<g>
	<g>
		<path class="st0" d="M254.4,73.6c0.1,2.3,0.2,4.6,0.3,7c0,0.5,0.8,0.5,0.8,0c-0.1-2.3-0.2-4.6-0.3-7
			C255.1,73.1,254.3,73.1,254.4,73.6L254.4,73.6z"/>
	</g>
</g>
<g>
	<g>
		<path class="st0" d="M194.9,82.5c-1,0.3-1.9,0.7-2.9,1c-0.2,0.1-0.3,0.3-0.3,0.5c0.1,0.2,0.3,0.3,0.5,0.3c0.2-0.1,0.4-0.1,0.7,0
			c0.2,0,0.4-0.1,0.5-0.3c0.1-0.2-0.1-0.4-0.3-0.5c-0.4-0.1-0.7-0.1-1.1,0c0.1,0.2,0.1,0.5,0.2,0.7c1-0.3,1.9-0.7,2.9-1
			c0.2-0.1,0.3-0.3,0.3-0.5C195.3,82.6,195.1,82.4,194.9,82.5L194.9,82.5z"/>
	</g>
</g>
<g>
	<g>
		<path class="st0" d="M160.5,72.1c1.3,1.9,2.5,3.8,3.8,5.7c0.3,0.4,0.9,0,0.6-0.4c-1.3-1.9-2.5-3.8-3.8-5.7
			C160.9,71.3,160.2,71.7,160.5,72.1L160.5,72.1z"/>
	</g>
</g>
<g>
	<g>
		<path class="st0" d="M130.9,77.1c0.2,1.1,0.5,2.2,0.7,3.2c0.2-0.1,0.5-0.1,0.7-0.2c-0.9-3.3-1.3-6.8-1.3-10.2c0-0.5-0.7-0.5-0.8,0
			c-0.1,3.5,0.4,7,1.3,10.4c0.1,0.5,0.8,0.3,0.7-0.2c-0.2-1.1-0.5-2.2-0.7-3.2C131.5,76.4,130.8,76.6,130.9,77.1L130.9,77.1z"/>
	</g>
</g>
<g>
	<g>
		<path class="st0" d="M127.8,79.4c0.1,1.2,0.2,2.4,0.4,3.6c0.1,0.4,0.7,0.4,0.7,0c0.1-0.6,0.2-1.3,0.3-1.9c0-0.2-0.1-0.4-0.3-0.5
			c-0.2,0-0.4,0.1-0.5,0.3c-0.1,0.6-0.2,1.3-0.3,1.9c0.2,0,0.5,0,0.7,0c-0.2-1.1-0.3-2.2-0.4-3.4c0-0.2-0.2-0.4-0.4-0.4
			C127.9,79.1,127.7,79.2,127.8,79.4L127.8,79.4z"/>
	</g>
</g>
<g>
	<g>
		<path class="st0" d="M161.5,74.6c0.2,0.1,0.3,0.3,0.4,0.4c0,0,0.1,0.1,0.1,0.1c0,0,0,0,0,0.1c0.1,0.1,0,0,0,0
			c0.1,0.1,0.1,0.2,0.2,0.3c0.1,0.2,0.2,0.3,0.3,0.5c0,0.1,0.1,0.2,0.1,0.3c0,0,0,0.1,0,0.1c0,0,0,0,0,0c0,0.1,0,0.1,0.1,0.2
			c0.1,0.2,0.3,0.3,0.5,0.3c0.2-0.1,0.3-0.3,0.3-0.5c-0.3-0.9-0.8-1.7-1.5-2.3c-0.1-0.1-0.4-0.2-0.5,0
			C161.4,74.2,161.4,74.5,161.5,74.6L161.5,74.6z"/>
	</g>
</g>
<g>
	<g>
		<path class="st0" d="M158.8,67.9c0.7,0.8,1.4,1.5,2.1,2.3c0.2-0.2,0.4-0.4,0.5-0.5c-0.7-0.7-1.5-1.4-2.2-2.1
			c-0.4-0.3-0.8,0.2-0.5,0.5c1,1.2,2.1,2.5,3.1,3.7c0.1,0.2,0.4,0.1,0.5,0c0.2-0.2,0.1-0.4,0-0.5c-1-1.2-2.1-2.5-3.1-3.7
			c-0.2,0.2-0.4,0.4-0.5,0.5c0.7,0.7,1.5,1.4,2.2,2.1c0.3,0.3,0.9-0.2,0.5-0.5c-0.7-0.8-1.4-1.5-2.1-2.3
			C159,67.1,158.4,67.6,158.8,67.9L158.8,67.9z"/>
	</g>
</g>
<g>
	<g>
		<path class="st0" d="M156.7,12c0.8-1.1,1.5-2.2,2.3-3.2c-0.2-0.1-0.5-0.2-0.7-0.3c-0.5,1.3-1.3,2.5-2.2,3.6
			c-0.1,0.2-0.2,0.4,0,0.5c0.1,0.1,0.4,0.2,0.5,0c1-1.2,1.8-2.5,2.4-3.9c0.1-0.2-0.1-0.4-0.2-0.4c-0.2-0.1-0.4,0-0.5,0.2
			c-0.8,1.1-1.5,2.2-2.3,3.2c-0.1,0.2,0,0.4,0.1,0.5C156.4,12.2,156.6,12.2,156.7,12L156.7,12z"/>
	</g>
</g>
<g>
	<g>
		<path class="st0" d="M162.9,4.6c-1.5,1.9-2.7,4-3.8,6.1c-0.2,0.4,0.4,0.8,0.6,0.4c1.1-2.2,2.3-4.2,3.8-6.1c0.1-0.2,0-0.4-0.1-0.5
			C163.2,4.4,163,4.5,162.9,4.6L162.9,4.6z"/>
	</g>
</g>
<g>
	<g>
		<path d="M106.4,64.4c-0.2,2.8-0.3,5.7-0.3,8.5c0,0.5,0.7,0.5,0.8,0c0-2.8,0.1-5.7,0.3-8.5C107.2,63.9,106.4,63.9,106.4,64.4
			L106.4,64.4z"/>
	</g>
</g>
<g>
	<g>
		<path d="M106.4,65.2c-0.7,5.4-0.6,10.8,0.3,16.2c0.1,0.5,0.8,0.3,0.7-0.2c-0.9-5.3-1-10.6-0.3-16
			C107.3,64.7,106.5,64.7,106.4,65.2L106.4,65.2z"/>
	</g>
</g>
<g>
	<g>
		<path d="M63.2,82.9c0,0.4,0.1,0.8,0.1,1.2c0,0.1,0,0.2,0.1,0.2c0,0.1,0.1,0.1,0.2,0.1c0.2,0,0.3,0,0.4-0.2c0.3-0.5,0-1.1-0.5-1.2
			c-0.1,0-0.3,0-0.4,0c-0.1,0-0.3,0.1-0.3,0.3c0,0.1,0,0.2,0,0.2c0,0.3,0.1,0.6,0.2,0.8c0.1,0.1,0.2,0.2,0.4,0.2
			c0.1,0,0.3-0.1,0.3-0.3c0-0.2,0.1-0.4,0.1-0.6c0-0.1,0-0.2,0-0.3c0-0.1-0.1-0.2-0.2-0.2c-0.2,0-0.4,0.1-0.5,0.3
			c0,0.2-0.1,0.4-0.1,0.6c0.2,0,0.5-0.1,0.7-0.1c0,0,0-0.1,0-0.1c0-0.1,0,0,0,0c0,0,0,0,0-0.1c0-0.1,0-0.1,0-0.2c0,0,0,0.1,0,0.1
			c0-0.1,0-0.2,0-0.3c0,0,0,0.1,0,0.1c0,0,0,0,0-0.1c-0.1,0.1-0.1,0.1-0.2,0.2c-0.1,0.1,0,0,0,0c0,0-0.1,0-0.1,0c0,0,0.1,0,0.1,0
			c0,0-0.1,0-0.1,0c0,0,0,0,0.1,0c0.1,0,0,0,0,0c0,0,0,0,0,0c0,0,0.1,0.1,0,0c0,0,0,0,0.1,0c0,0,0,0,0,0c0,0-0.1-0.1,0,0
			c0,0,0,0,0,0.1c0,0,0,0.1,0,0c0-0.1,0,0,0,0c0,0,0,0,0,0.1c0,0,0-0.1,0-0.1c0,0,0,0.1,0,0.1c0,0,0-0.1,0-0.1c0,0,0,0,0,0.1
			c0,0.1,0.1-0.1,0,0c0.2,0.1,0.5,0.1,0.7,0.2c0-0.4-0.1-0.8-0.1-1.2c0-0.1,0-0.2-0.1-0.3c-0.1-0.1-0.2-0.1-0.3-0.1
			C63.4,82.5,63.1,82.7,63.2,82.9L63.2,82.9z"/>
	</g>
</g>
<g>
	<g>
		<path d="M53.6,36.4c3.2-1.5,6.7-2,10.3-1.7c0.5,0,0.5-0.7,0-0.8c-3.6-0.3-7.3,0.3-10.6,1.8C52.8,35.9,53.2,36.6,53.6,36.4
			L53.6,36.4z"/>
	</g>
</g>
<g>
	<g>
		<path d="M55.4,35.3c3.6-1.1,7.3-1.5,11-1c0.5,0.1,0.5-0.7,0-0.8c-3.8-0.5-7.6-0.1-11.2,1C54.8,34.7,55,35.5,55.4,35.3L55.4,35.3z"
			/>
	</g>
</g>
<g>
	<g>
		<path d="M56.4,37.5c-0.5,0.2-1,0.4-1.4,0.6c0.2,0.2,0.3,0.4,0.5,0.6c0.1-0.1,0.1-0.2,0.2-0.3c0.1-0.1,0.1-0.2,0.1-0.3
			c0-0.1,0-0.2-0.1-0.3c-0.1-0.1-0.4-0.2-0.5,0C55,38,55,38.1,54.9,38.2c-0.1,0.1-0.1,0.2-0.1,0.3c0,0.1,0,0.2,0.1,0.2
			c0.1,0.2,0.3,0.2,0.5,0.1c0.5-0.2,1-0.4,1.4-0.6c0.1,0,0.2-0.1,0.2-0.2c0-0.1,0-0.2,0-0.3c-0.1-0.1-0.1-0.2-0.2-0.2
			C56.6,37.4,56.5,37.4,56.4,37.5L56.4,37.5z"/>
	</g>
</g>
<g>
	<g>
		<path d="M88.4,81.1c0.6,1,1.3,2.1,1.9,3.1c0.3,0.4,0.9,0,0.6-0.4c-0.6-1-1.3-2.1-1.9-3.1C88.8,80.3,88.2,80.7,88.4,81.1L88.4,81.1
			z"/>
	</g>
</g>
<g>
	<g>
		<path d="M87.9,80.9c1.1,1,2,2.1,2.8,3.3c0.3,0.4,0.9,0,0.6-0.4c-0.8-1.3-1.8-2.4-2.9-3.5C88.1,80.1,87.6,80.6,87.9,80.9L87.9,80.9
			z"/>
	</g>
</g>
<g>
	<g>
		<path d="M88.9,81.4c1.1,1.1,2.1,2.3,2.8,3.7c0.2-0.2,0.3-0.3,0.5-0.5c-0.6-0.3-1.1-0.7-1.4-1.2c-0.3-0.4-0.9,0-0.6,0.4
			c0.4,0.6,1,1.1,1.7,1.5c0.3,0.1,0.7-0.2,0.5-0.5c-0.8-1.4-1.8-2.7-3-3.8C89.1,80.6,88.5,81.1,88.9,81.4L88.9,81.4z"/>
	</g>
</g>
<g>
	<g>
		<path d="M42.7,65.4c1.3,3.3,2.1,6.8,2.2,10.4c0,0.5,0.8,0.5,0.8,0c-0.2-3.6-0.9-7.2-2.3-10.6C43.2,64.7,42.5,64.9,42.7,65.4
			L42.7,65.4z"/>
	</g>
</g>
<g>
	<g>
		<path d="M11.4,75.8c0,1.8-0.4,3.5-1,5.2c-0.2,0.4,0.5,0.6,0.7,0.2c0.7-1.7,1-3.6,1-5.4C12.2,75.3,11.4,75.3,11.4,75.8L11.4,75.8z"
			/>
	</g>
</g>
<g>
	<g>
		<path d="M388.8,79.6c0,0-0.1-0.1-0.1-0.1c0,0-0.1-0.1-0.1-0.1c0,0-0.1,0-0.1,0c-0.1,0-0.1,0-0.1,0c0,0-0.1,0-0.1,0.1
			c0,0,0,0.1-0.1,0.1c0,0.1-0.1,0.1-0.1,0.2c0,0,0,0.1,0,0.1c0,0.1,0,0.1,0.1,0.2c0,0,0.1,0.1,0.1,0.1c0,0,0.1,0.1,0.1,0.1
			c0,0,0.1,0,0.1,0c0.1,0,0.1,0,0.1,0c0,0,0.1,0,0.1-0.1c0,0,0-0.1,0.1-0.1c0-0.1,0.1-0.1,0.1-0.2c0,0,0-0.1,0-0.1
			C388.8,79.7,388.8,79.7,388.8,79.6L388.8,79.6z"/>
	</g>
</g>
<g>
	<g>
		<path d="M387.6,78.4c0.6,2.7,1.4,5.4,2.2,8.1c0.2-0.1,0.4-0.2,0.6-0.4c0,0-0.1-0.1-0.1-0.1c-0.3-0.3-0.9,0.2-0.5,0.5
			c0,0,0.1,0.1,0.1,0.1c0.3,0.3,0.7,0,0.6-0.4c-0.8-2.7-1.6-5.4-2.2-8.1C388.2,77.8,387.5,78,387.6,78.4L387.6,78.4z"/>
	</g>
</g>
<g>
	<g>
		<path d="M389.4,83c0.3,1.1,0.6,2.1,0.9,3.2c0.1,0.2,0.3,0.3,0.5,0.3c0.2-0.1,0.3-0.3,0.3-0.5c0-0.1,0-0.2-0.1-0.3
			c0-0.2-0.3-0.3-0.5-0.3c-0.2,0.1-0.3,0.3-0.3,0.5c0,0.1,0,0.2,0.1,0.3c0.2-0.1,0.5-0.1,0.7-0.2c-0.3-1.1-0.6-2.1-0.9-3.2
			C390,82.3,389.3,82.5,389.4,83L389.4,83z"/>
	</g>
</g>
<g>
	<g>
		<path d="M407.8,80.1c0,1.5-0.1,2.9-0.1,4.4c0.2,0,0.5,0,0.8,0c0-1.4,0-2.7-0.1-4.1c0-0.4-0.7-0.5-0.7-0.1
			c-0.1,0.8-0.2,1.5-0.2,2.3c0,0.4,0.1,0.8,0.1,1.2c0,0.3,0.1,0.7,0.2,1c0.2,0.3,0.4,0.4,0.7,0.4c0.3-0.1,0.5-0.4,0.5-0.7
			c0.1-0.8,0.1-1.6,0.1-2.4c0-0.5-0.7-0.5-0.8,0c0,0.6,0,1.2-0.1,1.8c0,0.2,0,0.3,0,0.5c0,0,0,0.1,0,0.1c0,0.1-0.1,0,0.1,0
			c0,0,0.1,0,0.1,0c0,0,0-0.1,0-0.1c0-0.1-0.1-0.3-0.1-0.4c-0.2-1.1-0.2-2.3,0-3.4c-0.2,0-0.5-0.1-0.7-0.1c0,1.4,0,2.7,0.1,4.1
			c0,0.5,0.7,0.5,0.8,0c0-1.5,0.1-2.9,0.1-4.4C408.6,79.6,407.8,79.6,407.8,80.1L407.8,80.1z"/>
	</g>
</g>
<g>
	<g>
		<path d="M417,59.4c1.1-0.2,2.3-0.3,3.4-0.5c0.2,0,0.3-0.3,0.3-0.5c-0.1-0.2-0.3-0.3-0.5-0.3c-1.1,0.2-2.3,0.3-3.4,0.5
			c-0.2,0-0.3,0.3-0.3,0.5C416.6,59.4,416.8,59.4,417,59.4L417,59.4z"/>
	</g>
</g>
<g>
	<g>
		<path d="M398.9,38.1c5-3.3,11.4-4.1,17.1-2.2c0.5,0.2,0.7-0.6,0.2-0.7c-5.9-2-12.5-1.2-17.7,2.3C398.1,37.7,398.5,38.3,398.9,38.1
			L398.9,38.1z"/>
	</g>
</g>
<g>
	<g>
		<path d="M399.8,35.7c-0.7-0.1-1.5,0-2.1,0.5c-0.2,0.1-0.3,0.3-0.1,0.5c0.1,0.2,0.3,0.2,0.5,0.1c0.5-0.2,0.9-0.4,1.4-0.7
			c0.2-0.1,0.2-0.3,0.2-0.5c-0.1-0.2-0.3-0.3-0.4-0.2c-0.2,0.1-0.4,0.1-0.6,0.2c-0.2,0.1-0.3,0.3-0.3,0.5c0.1,0.2,0.3,0.3,0.5,0.3
			c0.2-0.1,0.4-0.1,0.6-0.2c-0.1-0.2-0.2-0.5-0.3-0.7c-0.5,0.2-0.9,0.4-1.4,0.7c0.1,0.2,0.3,0.4,0.4,0.6c0.1-0.1,0.3-0.2,0.4-0.2
			c0,0,0.1-0.1,0.1,0c0,0,0.1,0,0.1,0c0.1,0,0.1,0,0.2-0.1c0.1,0,0.1,0,0.2,0c0,0,0,0,0,0c0,0,0,0,0.1,0c0,0,0.1,0,0.1,0
			c0.1,0,0.2,0,0.2,0c0,0,0.1,0,0.1,0c0,0,0,0,0.1,0c0,0-0.1,0,0,0c0.2,0,0.4,0,0.5-0.3C400.1,36,400,35.8,399.8,35.7L399.8,35.7z"
			/>
	</g>
</g>
<g>
	<g>
		<path d="M400.9,33.4c2.2-0.6,4.4-1,6.6-1.1c0.5,0,0.5-0.8,0-0.8c-2.8,0.1-5.5,0.8-8.1,1.9c-0.4,0.2-0.1,0.8,0.3,0.7
			c2.9-0.9,5.8-1.7,8.7-2.6c0.5-0.1,0.3-0.9-0.2-0.7c-1.1,0.3-2.1,0.6-3.2,0.9c-0.4,0.1-0.3,0.8,0.1,0.7c2.8-0.3,5.6-0.6,8.4-0.9
			c0.5-0.1,0.5-0.8,0-0.8c-2.8,0.3-5.6,0.6-8.4,0.9c0,0.2,0.1,0.5,0.1,0.7c1.1-0.3,2.1-0.6,3.2-0.9c-0.1-0.2-0.1-0.5-0.2-0.7
			c-2.9,0.9-5.8,1.7-8.7,2.6c0.1,0.2,0.2,0.5,0.3,0.7c2.4-1.1,5-1.7,7.7-1.8c0-0.2,0-0.5,0-0.8c-2.3,0.1-4.6,0.5-6.8,1.1
			C400.3,32.8,400.5,33.5,400.9,33.4L400.9,33.4z"/>
	</g>
</g>
<g>
	<g>
		<path d="M458.4,80.5c0.3,1.4,0.6,2.8,0.9,4.2c0.2-0.1,0.5-0.1,0.7-0.2c-0.2-0.8-0.5-1.7-0.7-2.5c-0.1-0.5-0.9-0.3-0.7,0.2
			c0.2,0.8,0.5,1.7,0.7,2.5c0.1,0.5,0.8,0.3,0.7-0.2c-0.3-1.4-0.6-2.8-0.9-4.2C459,79.9,458.3,80.1,458.4,80.5L458.4,80.5z"/>
	</g>
</g>
<g>
	<g>
		<path d="M504.3,76.9c-0.7,2.3-0.9,4.7-0.8,7c0.2-0.1,0.4-0.2,0.6-0.3c-0.3-0.3-0.3-0.7-0.1-1c0.2-0.4-0.5-0.6-0.7-0.2
			c-0.2,0.6-0.1,1.3,0.3,1.7c0.2,0.2,0.7,0.1,0.6-0.3c-0.2-2.3,0.1-4.6,0.7-6.8C505.2,76.6,504.5,76.4,504.3,76.9L504.3,76.9z"/>
	</g>
</g>
<g>
	<g>
		<path d="M553.7,76.5c0,1.1-0.1,2.2-0.1,3.3c0.2,0,0.5,0,0.8,0c0-1.2,0.1-2.4,0.1-3.6c-0.2,0.1-0.5,0.1-0.7,0.2
			c0.2,0.5,0.5,1,0.7,1.5c0.1,0.2,0.3,0.2,0.5,0.1c0.2-0.1,0.2-0.3,0.1-0.5c-0.2-0.5-0.5-1-0.7-1.5c-0.2-0.4-0.7-0.2-0.7,0.2
			c0,1.2-0.1,2.4-0.1,3.6c0,0.5,0.7,0.5,0.8,0c0-1.1,0.1-2.2,0.1-3.3C554.5,76,553.7,76,553.7,76.5L553.7,76.5z"/>
	</g>
</g>
<g>
	<g>
		<path d="M564.4,34.2c-1.5,3.9-2.9,7.7-4.4,11.6c-0.2,0.5,0.6,0.6,0.7,0.2c1.5-3.9,2.9-7.7,4.4-11.6
			C565.3,33.9,564.6,33.7,564.4,34.2L564.4,34.2z"/>
	</g>
</g>
<g>
	<g>
		<path d="M564.7,34.7c-0.3,1.1-0.5,2.3-0.8,3.4c-0.1,0.5,0.6,0.7,0.7,0.2c0.3-1.1,0.5-2.3,0.8-3.4
			C565.5,34.4,564.8,34.2,564.7,34.7L564.7,34.7z"/>
	</g>
</g>
</svg>
