<?xml version="1.0" encoding="utf-8"?>
<!-- Generator: Adobe Illustrator 25.2.1, SVG Export Plug-In . SVG Version: 6.00 Build 0)  -->
<svg version="1.1" id="Layer_3" xmlns="http://www.w3.org/2000/svg" xmlns:xlink="http://www.w3.org/1999/xlink" x="0px" y="0px"
	 viewBox="0 0 41.1 25.9" style="enable-background:new 0 0 41.1 25.9;" xml:space="preserve">
<style type="text/css">
	.st0{fill:#C1272D;}
	.st1{fill:#E33614;}
	.st2{fill:url(#SVGID_1_);}
</style>
<g>
	<path class="st0" d="M27.5,16.8c-0.1,0.1-1.4,5.6-1.4,5.6l0.7,0.8l1.3-6.5L27.5,16.8z"/>
	<path d="M30.7,2.8c-0.4-0.1-2.3,6.4-3.9,11.9c0,0.1-1.3,0-1,0.2c0.9,0.5,0.9,0,0.8,0.4c0,0-0.8,0-0.8,0.1c-0.1,0.3,0.5,0.3,0.4,0.3
		c-0.1,0.1-0.8-0.2-1,0.1c-0.3,0.3,1.3,0.1,1,0.2C25,16,26,16.1,25.2,16.3c-0.1,0,1.1-0.1,1,0.3c-0.8,2.7-1.5,5.1-1.7,5.7
		c0,0.1,0.2,0.2,0.2,0.2s0.4-0.8,0.2-0.1c-0.2,0.9-0.1,0.1,0.2,0.5c0.3,0.4,0.5-0.7,0.6-0.7c0.3-0.2-0.2,0.7,0.1,0.6
		c0.3-0.1,0.4-0.7,0.6-1.1c0.1-0.2,0.1-0.4,0.3-0.6c0.4-0.6,1-4.6,1.2-4.5c0.2,0.1-1.6,6.3-1.6,6.3c0.7,1.1,1.1-1.1,1-0.7
		c-0.2,1.1,0.4,0.7,0.4,0.7l1.6-6.4l2.9,0l-0.5-2l-1.9,0l1-4l0.9,4l0.1,0.5l0.3,1.1l0.1,0.3l1.5,6.3c0,0,0.9,0.7,0.7,0
		c-0.7-2.6-1.6-6.3-0.3-1.6c0.1,0.3,0.4,0.5,0.4,0.8c0.1,0.6,0.5,0.7,0.4,0.5c-0.3-0.6-0.3-1.8-0.3-1.8s1.1,2.8,0.8,1.4
		c-0.2-0.8-0.1-1.2-0.3-1.7c-0.4-1.1-0.5-2.1-0.6-2.7c-0.2-1.1,0.2-0.2,0.4,1c0.1,0.6,1,3.9,1.1,4.1c0.1,0.3,0.4,0.4,0.4,0.4
		s0.2-0.1,0.4,0.1c0.2,0.3,0.4,0.7,0.8,0.7c0.1,0-0.9-3.4-2.1-7.6c0-0.1,1.1,0,1-0.1c-0.2-0.4,0-0.5-0.5-0.5c-0.3,0-0.2,0-0.2-0.1
		c0-0.1,0.2,0,0.1-0.2c0-0.2-0.3,0-0.4-0.1c0-0.1,0.3,0.1,0.3-0.2c0-0.1-0.3,0,0-0.2c0.1-0.1-0.2,0.1-0.3,0c0-0.1,0.4-0.1,0.4-0.1
		c-0.3-0.1-0.9,0.1-0.8,0c0.2-0.1,0.7,0,0.6-0.2c-0.1-0.2-0.8-0.1-0.8-0.1C33.1,8.9,31.2,2.8,30.7,2.8z"/>
	<path d="M8.9,2.7C8.5,2.6,6.6,9,5,14.5c0,0.1-1.3,0-1,0.2c0.9,0.5,0.9,0,0.8,0.4c0,0-0.8,0-0.8,0.1c-0.1,0.3,0.5,0.3,0.4,0.3
		c-0.1,0.1-0.8-0.2-1,0.1c-0.3,0.3,1.3,0.1,1,0.2c-1.1,0.1-0.1,0.3-0.9,0.6c-0.1,0,1,0,1,0.1c-0.8,2.9-1.5,5.2-1.7,5.7
		c-0.2,0.4,0.1,0.4,0.1,0.4s0.5-1,0.3-0.3c-0.2,0.9-0.1,0.9,0,0.8c0.7-0.1,0.7-1,0.8-1c0.3-0.2-0.2,0.7,0.1,0.6
		c0.3-0.1,0.4-0.7,0.6-1.1c0.1-0.2,0.1-0.4,0.3-0.6c0.4-0.6,1-4.6,1.2-4.5c0.2,0.1-1.6,6.3-1.6,6.3c0.7,1.1,1.1-1.1,1-0.7
		C5.4,23.2,6,22.9,6,22.9l1.6-6.4l2.9,0l-0.5-2l-1.9,0l1-4l0.9,4l0.1,0.5l0.3,1.1l0.1,0.3l1.5,6.3c0,0,0.9,0.7,0.7,0
		c-0.7-2.6-1.6-6.3-0.3-1.6c0.1,0.3,0.4,0.5,0.4,0.8c0.1,0.6,0.5,0.7,0.4,0.5c-0.3-0.6-0.3-1.8-0.3-1.8s1.1,2.8,0.8,1.4
		c-0.2-0.8-0.1-1.2-0.3-1.7c-0.4-1.1-0.5-2.1-0.6-2.7c-0.2-1.1,0.2-0.2,0.4,1c0.1,0.6,1,3.9,1.1,4.1c0.1,0.3,0.4,0.4,0.4,0.4
		s0.2-0.1,0.4,0.1c0.2,0.3,0.4,0.7,0.8,0.7c0.1,0-0.9-3.4-2.1-7.6c0-0.1,1.1,0,1-0.1c-0.2-0.4,0-0.5-0.5-0.5c-0.3,0-0.2,0-0.2-0.1
		c0-0.1,0.2,0,0.1-0.2c0-0.2-0.3,0-0.4-0.1c0-0.1,0.3,0.1,0.3-0.2c0-0.1-0.3,0,0-0.2c0.1-0.1-0.2,0.1-0.3,0c0-0.1,0.4-0.1,0.4-0.1
		c-0.3-0.1-0.9,0.1-0.8,0c0.2-0.1,0.7,0,0.6-0.2c-0.1-0.2-0.8-0.1-0.8-0.1C11.3,8.8,9.4,2.7,8.9,2.7z"/>
	<path class="st1" d="M16.3,3.5c-1.1-0.2-0.6,4.1-0.6,4.1l0,15.2c-0.1,0.1,0.1,0.4,0.6,0.3c0.6,0,0.4-0.7,0.4-0.7l0-1.5l0.1,0.9
		l0.2,0.6c0,0-0.1,0.7,0.3,0.5c0.1,0,0.4-0.2,0.4-0.4c0.1-0.2-0.3-1.1-0.3-1.1l0.2-0.2l-0.2-1l0.2-0.4l0.1,0.9l0.3,2.2
		c0,0,1.2,0.1,1.2-0.2c-0.2-1.2-0.4-9.4-0.4-9.4s4.6,7,5.7,8.9c0.5,0.9,1.4,2,1.4,2s1,0.2,0.8,0.1C26,23.6,25.9,23,25.9,23
		c0,0,0.6,0.7,1,0.5l-0.6-1.3l-1-1.7l-0.1-0.6c0,0-1-1.4-0.6-1c0.5,0.5,0.8,1.4,1.2,1.6c0.2,0.1-0.1-0.4-0.1-0.7
		c-0.1-0.5-0.3-0.8-0.3-0.8l-0.1-0.2c0,0,0.6,0.5,0.4,0.1c-0.1-0.3-0.4-0.8-0.4-0.8l-0.4-0.7l-0.3-0.5l0.6,0.6c0,0,0.1-0.1,0-0.3
		c-0.2-0.3-4.2-6.1-4.2-6.1l6.3-8l0.3-0.6l-0.2-0.5c0,0-0.7,1-1.2,1.6c-0.2,0.2-0.4,0.2-0.5,0.3C25.3,3.9,25.5,3,25.5,3l-1.1,1.4
		l-0.6,0.4c0,0,0.3-0.4,0.4-0.9c0.1-0.6-1.6,1-1.6,1s0.4-0.8,0.2-0.8c-0.3,0-0.9,1-0.9,1l-1.7,2.6l-1.3,1.7c0,0,0.1-3.9-0.1-5.7
		c0-0.2-0.6-0.3-0.8-0.3C17.5,3.3,16.3,3.5,16.3,3.5z"/>
	
		<linearGradient id="SVGID_1_" gradientUnits="userSpaceOnUse" x1="23.0042" y1="14.6335" x2="29.786" y2="14.6335" gradientTransform="matrix(0.9974 -7.182590e-02 7.182590e-02 0.9974 0.1212 3.1236)">
		<stop  offset="0" style="stop-color:#FF3500"/>
		<stop  offset="0.4596" style="stop-color:#F15A24"/>
		<stop  offset="0.7105" style="stop-color:#EC5425"/>
		<stop  offset="0.9773" style="stop-color:#000000"/>
	</linearGradient>
	<path class="st2" d="M24.8,20.6c-0.9-2.2-0.2-2.2,0.3-1.9c0,0,0,0.2,0.3,0.2c0.4-0.1,0.8-2.1,0.9-2.7c0,0-1-0.2,0-0.3
		c0.1,0-0.7-0.2-0.6-0.3c0-0.1,0.7-0.1,0.8-0.2c0-0.2,0.5-0.3,0.5-0.3c0,0,0-0.1,0.3-1.2c0.2-0.6-0.4,0.2-0.2,0.4
		c0.6,0.8-0.7,2,0.2,1.3c0.5-0.4,0.1,2.9-0.1,3.8c-0.1,0.6-0.1-0.8,0.1-1.1c0.2-0.4,0.9-2.5,1.4-1.9c0.4,0.5,0.6-1,0.9-1.7
		c0.7-1.6,1.6-9.6-0.1-1.6c-1.1,4.9-0.4,0.1-0.7,0.4c-0.2,0.3,0,0.3-0.5,1c-0.2,0.3-0.1,0.8-0.1,0.8s-1.7,1.9-2,3.8
		c0,0.2-0.4,2.7-0.6,2.6C25.4,21.6,25,21.1,24.8,20.6z"/>
	<g>
		<g>
			<path class="st0" d="M25.8,21.4c-0.1-0.4,0.1-0.8,0.3-1.2c0.2-0.3,0.3-0.6,0.5-1c0.2-0.6,0.3-1.2,0.3-1.8c0-0.1-0.2-0.1-0.2,0
				c0,0.7-0.1,1.3-0.4,1.9c-0.2,0.4-0.4,0.7-0.6,1c-0.2,0.3-0.3,0.7-0.2,1C25.7,21.6,25.8,21.5,25.8,21.4L25.8,21.4z"/>
		</g>
	</g>
	<g>
		<g>
			<path class="st0" d="M25.9,20c-0.2,0.7,0,1.5,0.1,2.2c0.1,0,0.1,0,0.2,0c-0.2-0.4-0.3-0.9-0.5-1.3c0-0.1-0.2-0.1-0.2,0
				c0.2,0.4,0.3,0.9,0.5,1.3c0,0.1,0.2,0.1,0.2,0c-0.1-0.7-0.2-1.4-0.1-2.1C26.1,19.9,26,19.9,25.9,20L25.9,20z"/>
		</g>
	</g>
	<g>
		<g>
			<path class="st0" d="M26.1,21.8c0.1-0.8,0.3-1.6,0.5-2.4c0-0.1-0.1-0.2-0.2,0c-0.3,0.8-0.4,1.7-0.5,2.5
				C25.9,21.9,26,21.9,26.1,21.8L26.1,21.8z"/>
		</g>
	</g>
	<g>
		<g>
			<path class="st0" d="M26.1,20.2c0,0.1,0,0.2,0,0.2c0,0,0,0.1,0.1,0.1c0.1,0,0.1,0,0.1-0.1c0-0.1,0-0.2,0-0.2
				C26.3,20.1,26.3,20.1,26.1,20.2C26.2,20.1,26.1,20.1,26.1,20.2L26.1,20.2z"/>
		</g>
	</g>
	<g>
		<g>
			<path class="st0" d="M25.9,20.4c0,0.3,0,0.6,0,0.9c0,0.1,0.2,0.1,0.2,0c0-0.3,0-0.6,0-0.9C26.1,20.3,25.9,20.3,25.9,20.4
				L25.9,20.4z"/>
		</g>
	</g>
	<g>
		<g>
			<path class="st0" d="M26,20.3c-0.1,0.3-0.1,0.7-0.1,1c0.1,0.3,0.2,0.6,0.3,0.9c0.1,0,0.1,0,0.2-0.1c-0.2-0.2-0.4-0.5-0.4-0.8
				c0-0.1-0.2-0.1-0.2,0c0,0.4,0.2,0.6,0.4,0.9c0.1,0.1,0.2,0,0.2-0.1c-0.1-0.3-0.2-0.6-0.3-0.9c-0.1-0.3-0.1-0.6,0.1-1
				C26.2,20.2,26,20.2,26,20.3L26,20.3z"/>
		</g>
	</g>
</g>
</svg>
